<?xml version="1.0" encoding="UTF-8" standalone="no"?>
<!-- Created with Inkscape (http://www.inkscape.org/) -->

<svg
   width="1024"
   height="1024"
   viewBox="0 0 270.93333 270.93333"
   version="1.1"
   id="svg1"
   xml:space="preserve"
   inkscape:version="1.4.2 (f4327f4, 2025-05-13)"
   sodipodi:docname="plat-lang-logo.svg"
   xmlns:inkscape="http://www.inkscape.org/namespaces/inkscape"
   xmlns:sodipodi="http://sodipodi.sourceforge.net/DTD/sodipodi-0.dtd"
   xmlns="http://www.w3.org/2000/svg"
   xmlns:svg="http://www.w3.org/2000/svg"><sodipodi:namedview
     id="namedview1"
     pagecolor="#ffffff"
     bordercolor="#000000"
     borderopacity="0.25"
     inkscape:showpageshadow="2"
     inkscape:pageopacity="0.0"
     inkscape:pagecheckerboard="0"
     inkscape:deskcolor="#d1d1d1"
     inkscape:document-units="mm"
     inkscape:zoom="0.49364723"
     inkscape:cx="264.35882"
     inkscape:cy="312.97653"
     inkscape:window-width="1920"
     inkscape:window-height="1129"
     inkscape:window-x="-8"
     inkscape:window-y="-8"
     inkscape:window-maximized="1"
     inkscape:current-layer="g27" /><defs
     id="defs1" /><g
     inkscape:label="Layer 1"
     inkscape:groupmode="layer"
     id="layer1"><g
       id="g27"><path
         style="fill:#d85d5f;stroke-width:1.19378"
         d="m 66.933078,266.567 c -0.365407,-0.3654 -0.414589,-1.35746 -0.414589,-8.36272 0,-5.84253 0.08091,-8.02905 0.305418,-8.25357 0.376684,-0.37668 1.787396,-0.40143 2.151092,-0.0377 0.187233,0.18723 0.620856,0.17876 1.442809,-0.0282 1.772037,-0.4462 4.824017,-0.22222 5.679981,0.41684 1.638159,1.22307 1.746614,1.57748 1.746614,5.70747 0,3.44559 -0.04742,3.84377 -0.535634,4.49843 -0.977782,1.31111 -1.81276,1.60869 -4.579684,1.63221 -1.386071,0.0119 -2.749193,-0.0172 -3.029158,-0.0645 -0.474335,-0.0801 -0.514019,0.0745 -0.58221,2.26834 -0.06555,2.10886 -0.123075,2.35426 -0.551843,2.35426 -0.263265,0 -0.64506,0.0639 -0.848435,0.1419 -0.203374,0.0781 -0.556337,-0.0446 -0.784361,-0.2727 z m 1.515089,-0.12372 c 0.282115,0 0.361808,-0.45863 0.364854,-2.09974 0.0045,-2.43657 0.181882,-2.87599 1.046016,-2.59157 0.981476,0.32304 5.295675,0.13206 6.070729,-0.26874 1.366504,-0.70665 1.642627,-1.4884 1.746826,-4.94554 0.114806,-3.80911 -0.133046,-4.82886 -1.41069,-5.80401 -0.859852,-0.65628 -1.090382,-0.7055 -3.236852,-0.69103 -1.271085,0.008 -2.711925,0.0467 -3.201866,0.0845 -0.489941,0.038 -1.275719,-0.0125 -1.746173,-0.11222 -0.608954,-0.12902 -0.919447,-0.0801 -1.077791,0.16994 -0.122331,0.19314 -0.224175,3.85011 -0.226318,8.12659 -0.0039,7.93581 0.07422,8.60609 0.964186,8.26457 0.190367,-0.0731 0.508553,-0.13282 0.707079,-0.13282 z m 2.083482,-6.31441 c -1.553633,-0.3926 -1.722526,-0.78251 -1.722526,-3.97676 0,-2.71133 0.04277,-2.96495 0.611666,-3.62631 0.558948,-0.64983 0.788668,-0.71915 2.665356,-0.80437 2.000728,-0.0908 2.073562,-0.0734 2.824286,0.67732 0.764558,0.76456 0.770596,0.79258 0.770596,3.57565 0,2.5538 -0.05204,2.86554 -0.580906,3.4804 -0.496814,0.57758 -0.81919,0.68797 -2.227005,0.76256 -0.905355,0.048 -1.959015,0.008 -2.341467,-0.0884 z m 3.589681,-0.32975 c 0.443793,-0.1547 0.919011,-0.49076 1.05604,-0.7468 0.137028,-0.25604 0.249142,-1.66295 0.249142,-3.12648 0,-3.6544 -0.171524,-3.86265 -3.181437,-3.86265 -3.01924,0 -3.181436,0.20008 -3.181436,3.92454 0,1.77787 0.110508,2.87395 0.318438,3.15831 0.616531,0.84316 3.180483,1.19648 4.739253,0.65308 z m 129.11769,6.94853 c -0.20866,-0.14227 -0.305,-0.60446 -0.25451,-1.22107 l 0.0812,-0.99216 3.17053,-0.0719 c 3.58848,-0.0814 4.08315,-0.29364 4.08315,-1.75217 v -0.85437 l -1.08168,0.19389 c -2.07727,0.37236 -4.57628,0.22804 -5.5091,-0.31815 -1.73172,-1.01396 -1.92611,-1.541 -2.01808,-5.47185 -0.095,-4.06003 0.15936,-4.95468 1.67488,-5.89132 1.07747,-0.66591 4.37485,-0.95539 5.68404,-0.49899 0.61583,0.21466 1.0298,0.21324 1.63513,-0.006 0.4458,-0.16121 1.11416,-0.2169 1.48525,-0.12376 l 0.67471,0.16935 v 7.06191 c 0,6.40192 -0.0443,7.14479 -0.47418,7.94874 -0.83307,1.55801 -1.73757,1.88267 -5.5026,1.97508 -1.82215,0.0448 -3.4641,-0.0217 -3.64877,-0.1476 z m 7.77106,-0.71126 c 1.53577,-1.12631 1.61022,-1.56861 1.53815,-9.13741 l -0.0654,-6.87191 -0.71531,-0.082 c -0.39341,-0.0451 -0.88095,0.0554 -1.0834,0.22347 -0.28677,0.23801 -0.62106,0.23469 -1.51285,-0.015 -1.5141,-0.42392 -4.71309,-0.21963 -5.59346,0.3572 -1.39331,0.91294 -1.65536,1.75643 -1.65639,5.33173 -0.001,3.76763 0.27711,4.65995 1.73359,5.56009 1.01258,0.62581 2.83594,0.75199 5.4555,0.37753 l 1.46346,-0.2092 v 0.98773 c 0,1.80576 -0.29062,1.95906 -3.98728,2.10308 -3.18095,0.12392 -3.26859,0.14271 -3.35016,0.71842 -0.18958,1.33816 -0.0574,1.3845 3.64101,1.27642 2.94967,-0.0862 3.52155,-0.17201 4.13257,-0.62013 z m -5.45774,-5.86558 c -0.31217,-0.0685 -0.79894,-0.41858 -1.08168,-0.77805 -0.44035,-0.5598 -0.51411,-1.03032 -0.51411,-3.27967 0,-2.87089 0.24243,-3.71946 1.18536,-4.14909 1.04679,-0.47695 3.66429,-0.34981 4.60485,0.22366 l 0.82717,0.50433 v 3.30658 c 0,3.24623 -0.0119,3.31417 -0.63634,3.72352 -0.639,0.41868 -3.28675,0.68961 -4.38525,0.44872 z m 4.29486,-0.75999 c 0.41158,-0.37247 0.47222,-0.83255 0.47222,-3.58233 v -3.15499 l -0.88262,-0.36878 c -0.48545,-0.20284 -1.57871,-0.36878 -2.42947,-0.36878 -1.30296,0 -1.64532,0.0985 -2.17154,0.62471 -0.58633,0.58632 -0.62472,0.79404 -0.62472,3.37932 0,3.87447 0.29048,4.20303 3.53638,4.00001 1.04877,-0.0655 1.79545,-0.25378 2.09975,-0.52916 z m -125.703552,2.79167 c -0.178141,-0.0719 -0.318144,-0.56492 -0.318144,-1.12037 0,-1.12548 0.153156,-1.20476 2.54515,-1.3175 l 1.399831,-0.066 0.154769,-1.01806 0.154771,-1.01807 0.03222,0.8908 c 0.0481,1.32985 -0.172682,1.49336 -2.1304,1.57781 l -1.774567,0.0765 v 0.8908 0.8908 l 4.454011,0.0725 c 5.333726,0.0868 5.59933,0.0423 5.59933,-0.94033 v -0.73087 l -1.921601,-0.097 c -1.33549,-0.0675 -1.994155,-0.21178 -2.15948,-0.47321 -0.131652,-0.2082 -0.23962,-3.36364 -0.241777,-7.06611 l -0.0039,-6.68992 -2.608778,0.0726 -2.608778,0.0725 v 0.76355 c 0,0.7494 0.02828,0.76589 1.527089,0.8908 1.457577,0.12147 1.528501,0.15926 1.558093,0.83032 0.02734,0.61998 0.01796,0.62889 -0.0794,0.0753 -0.101567,-0.57743 -0.236527,-0.63374 -1.685351,-0.70307 l -1.574944,-0.0753 v -1.01806 -1.01807 h 2.799664 2.799664 l 0.06796,6.73626 c 0.04226,4.1887 0.167091,6.83568 0.330079,6.99916 0.144164,0.14459 1.0871,0.32017 2.095414,0.39016 l 1.8333,0.12726 0.08249,0.86411 c 0.04966,0.51969 -0.05181,0.94928 -0.254526,1.07779 -0.35521,0.22522 -9.525818,0.27339 -10.072215,0.0529 z m 18.643222,-0.19713 c -1.73152,-0.64123 -2.16339,-1.37711 -2.16339,-3.68642 0,-3.33983 1.02315,-4.09238 5.56393,-4.09238 2.972,0 3.40969,-0.19888 2.82833,-1.28517 -0.45042,-0.84163 -1.15081,-1.00545 -4.29843,-1.00545 -3.02656,0 -3.06805,-0.008 -3.21981,-0.61259 -0.0845,-0.33691 -0.0254,-0.85231 0.13136,-1.14532 0.2669,-0.49869 0.49653,-0.53273 3.59303,-0.53273 3.61063,0 4.50702,0.22271 5.5822,1.38691 0.6284,0.68044 0.63726,0.75226 0.71511,5.7986 0.0838,5.43003 0.0636,5.52786 -1.14233,5.53634 -0.30497,0.002 -0.74147,-0.18309 -0.97001,-0.41163 -0.35003,-0.35003 -0.5234,-0.36596 -1.09987,-0.10099 -1.08765,0.49981 -4.33799,0.58865 -5.52012,0.15089 z m 5.53466,-0.41203 c 0.59889,-0.27517 0.76886,-0.25779 1.18796,0.1215 0.26899,0.24344 0.75621,0.40477 1.08272,0.35853 l 0.59365,-0.084 0.069,-4.85386 c 0.0669,-4.70358 0.0509,-4.88087 -0.51784,-5.72658 -0.80558,-1.19808 -1.82327,-1.47783 -5.43744,-1.49465 -3.2507,-0.0152 -3.80655,0.16679 -3.61266,1.18235 0.0772,0.40476 0.47226,0.47233 3.41869,0.58489 3.54098,0.13527 3.99686,0.28791 4.28467,1.43462 0.29392,1.17107 -0.16176,1.36504 -3.20676,1.36504 -4.4652,0 -5.30928,0.60693 -5.29982,3.81073 0.007,2.24013 0.36121,2.88148 1.91294,3.46007 1.17856,0.43945 4.42623,0.34624 5.52493,-0.15855 z m -4.54214,-1.60691 c -1.20221,-0.54609 -1.53762,-2.13589 -0.67438,-3.19654 0.41606,-0.51121 0.63824,-0.54241 3.37232,-0.4736 l 2.92693,0.0737 0.0762,1.31459 c 0.0633,1.09179 -0.0203,1.40453 -0.49339,1.84524 -0.31327,0.29184 -0.86294,0.53162 -1.2215,0.53284 -0.35855,10e-4 -1.22458,0.0608 -1.92449,0.13222 -0.81172,0.083 -1.55835,1.9e-4 -2.06166,-0.22843 z m 4.9383,-0.58093 c 0.49805,-0.31648 0.57445,-0.55163 0.50903,-1.5667 l -0.077,-1.19433 -2.70951,-0.072 c -3.06634,-0.0814 -3.52611,0.12428 -3.52611,1.57779 0,0.80682 0.45649,1.43803 1.27257,1.75965 0.64422,0.25388 3.90973,-0.10971 4.531,-0.50445 z m 14.55763,2.66735 c -0.93465,-0.26473 -1.88052,-1.00672 -2.37763,-1.86517 -0.16909,-0.29199 -0.34904,-2.13689 -0.42204,-4.32675 l -0.12726,-3.81773 -1.52708,-0.12725 -1.52709,-0.12726 v -1.01806 -1.01807 l 1.52709,-0.12725 1.52708,-0.12726 0.0671,-1.14531 c 0.1295,-2.20978 0.20382,-2.32834 1.40476,-2.24123 l 1.07327,0.0778 0.12726,1.65436 0.12725,1.65434 2.54516,0.12726 2.54514,0.12725 v 1.01807 1.01806 l -2.54514,0.12726 -2.54516,0.12725 -0.0713,3.40748 c -0.0883,4.22217 -0.014,4.35357 2.46497,4.3587 2.54286,0.005 2.82384,0.1318 2.82384,1.27156 0,0.64164 -0.13382,1.01249 -0.40258,1.11562 -0.61269,0.23512 -3.68246,0.141 -4.68771,-0.14372 z m 4.79254,-0.81949 c 0.11269,-0.98757 -0.25618,-1.16444 -2.43828,-1.16904 -2.78121,-0.006 -2.86329,-0.13654 -2.86329,-4.55793 0,-2.98956 0.0622,-3.55986 0.40259,-3.69047 0.22142,-0.085 1.43126,-0.15449 2.68852,-0.15449 h 2.28595 l -0.0797,-0.82717 -0.0798,-0.82718 -2.54514,-0.12726 -2.54515,-0.12726 -0.12726,-1.65434 -0.12726,-1.65435 h -0.8908 -0.8908 l -0.12725,1.65435 -0.12726,1.65434 -1.5271,0.12726 c -1.50113,0.1251 -1.52842,0.14111 -1.60591,0.9419 l -0.0788,0.81463 1.60591,0.0762 1.60591,0.0762 0.12726,3.94498 c 0.0762,2.36079 0.24943,4.1578 0.43151,4.47494 0.75535,1.31573 2.32391,1.89617 4.9133,1.81817 1.90052,-0.0573 1.90923,-0.0608 1.99288,-0.79342 z m 23.21935,0.7543 c -0.16859,-0.20315 -0.26964,-0.69125 -0.22452,-1.08468 0.0719,-0.6269 0.19211,-0.71812 0.97281,-0.73806 0.88756,-0.0227 0.8878,-0.0224 0.0636,0.079 -0.71761,0.0882 -0.82717,0.19859 -0.82717,0.83279 0,0.49818 0.15617,0.7806 0.49028,0.88664 0.55003,0.17457 8.80604,0.13972 9.49943,-0.0401 0.52325,-0.1357 0.62655,-1.50028 0.12726,-1.68107 -0.17498,-0.0634 -0.90065,-0.0589 -1.6126,0.01 -0.73949,0.0715 -1.52881,-1.4e-4 -1.84109,-0.16727 -0.53551,-0.28659 -0.54801,-0.43093 -0.61441,-7.09408 l -0.0678,-6.80155 -2.60878,-0.0725 -2.60879,-0.0726 v 0.88755 0.88756 l 1.58123,0.0758 c 1.53509,0.0735 1.58522,0.098 1.71798,0.83932 0.0752,0.41995 0.10159,3.14008 0.0586,6.04474 l -0.0782,5.28118 -1.06713,-0.0427 -1.06714,-0.0427 0.95443,-0.0998 0.95443,-0.0998 v -5.82633 -5.82633 l -1.59071,-0.0758 -1.59073,-0.0758 v -1.01806 -1.01807 h 2.79967 2.79967 l 0.0677,6.93172 0.0677,6.9317 0.64758,0.16253 c 0.35617,0.0894 1.09923,0.10195 1.65125,0.0279 1.57764,-0.21161 2.01976,-10e-4 2.01976,0.96104 0,0.45648 -0.14322,0.94882 -0.31826,1.09409 -0.193,0.16018 -2.23336,0.27379 -5.18391,0.28868 -3.96376,0.0199 -4.92247,-0.0439 -5.1722,-0.34485 z m 19.70965,0.2536 c -0.13998,-0.0552 -0.56062,-0.16744 -0.93476,-0.24963 -0.37413,-0.0821 -1.0327,-0.50188 -1.46346,-0.93264 -0.74051,-0.74052 -0.78322,-0.89126 -0.78322,-2.76542 0,-3.33957 1.02251,-4.087 5.59116,-4.087 h 2.80785 v -0.73237 c 0,-1.2164 -0.52487,-1.41853 -4.04637,-1.55825 l -3.20731,-0.12726 -0.0784,-0.94586 c -0.10088,-1.21537 0.16492,-1.28696 4.36248,-1.17518 3.45297,0.0919 3.94595,0.26836 5.11108,1.82892 0.48633,0.6514 0.51389,0.99768 0.44385,5.57927 -0.0521,3.40834 -0.1656,4.94259 -0.37553,5.07609 -0.50973,0.32416 -1.38904,0.21992 -1.82535,-0.2164 -0.33088,-0.33088 -0.5391,-0.35923 -1.02212,-0.13916 -0.62327,0.28399 -4.12458,0.62411 -4.57982,0.44489 z m 4.52702,-0.69282 c 0.37175,-0.19895 0.69906,-0.15394 1.32258,0.18185 1.53624,0.82731 1.65197,0.58187 1.71354,-3.63436 0.091,-6.22948 0.01,-6.64334 -1.50993,-7.63991 -0.57183,-0.37513 -1.27216,-0.44894 -4.25957,-0.44894 h -3.57524 l -0.0797,0.82718 -0.0797,0.82717 h 2.95568 c 3.7262,0 4.52622,0.31433 4.40839,1.73202 l -0.0782,0.94038 -3.18144,0.1292 c -4.47949,0.18193 -5.09029,0.62897 -5.09029,3.72563 0,1.58485 0.0863,1.93525 0.63797,2.5909 0.35088,0.417 1.0667,0.87878 1.59071,1.02617 1.08733,0.30586 4.48567,0.13852 5.22525,-0.25729 z m -3.31203,-1.42178 c -1.80414,-0.10267 -2.3603,-0.58145 -2.3603,-2.03172 0,-1.54652 0.62562,-1.85224 3.79049,-1.85224 3.03895,0 3.08142,0.0223 3.08142,1.61853 0,1.11513 -0.59938,1.87513 -1.72548,2.18788 -0.52081,0.14465 -1.0042,0.24156 -1.07419,0.21537 -0.07,-0.0261 -0.84036,-0.0882 -1.71194,-0.13782 z m 3.55417,-0.61272 c 0.51624,-0.27044 0.77727,-1.12532 0.65916,-2.1588 l -0.0834,-0.73067 -2.67241,-0.0741 c -2.47523,-0.0686 -2.70527,-0.0338 -3.11781,0.47359 -0.52053,0.64015 -0.58044,1.74254 -0.12726,2.34195 0.50283,0.66508 4.1613,0.76648 5.34182,0.14807 z m 9.41534,2.6244 c -0.2493,-0.15823 -0.30729,-1.59269 -0.25451,-6.29534 l 0.0684,-6.09044 1.01806,0.0712 c 0.55993,0.0392 1.41891,0.0516 1.90886,0.0276 5.39246,-0.2634 6.36706,-0.0481 7.39214,1.63308 0.44585,0.73124 0.49601,1.30521 0.49687,5.68553 8.3e-4,4.20858 -0.0538,4.89322 -0.40163,5.02666 -0.69058,0.26501 -1.32632,0.17083 -1.75749,-0.26032 -0.35744,-0.35745 -0.40396,-1.01169 -0.33632,-4.72966 l 0.0786,-4.31482 -0.63088,-0.51221 c -0.53555,-0.43483 -0.92381,-0.49891 -2.56979,-0.42416 -2.87077,0.13036 -2.78044,-0.0427 -2.78044,5.32758 0,4.22921 -0.0338,4.55924 -0.49229,4.80461 -0.58545,0.31334 -1.2932,0.33399 -1.73942,0.0507 z m 1.67178,-0.34722 c 0.21392,-0.2139 0.30542,-1.61913 0.30542,-4.69004 v -4.38464 l 0.67062,-0.52751 c 0.53952,-0.42438 1.03428,-0.5275 2.53095,-0.5275 1.60129,0 1.95979,0.0857 2.57446,0.61568 l 0.71411,0.61568 -0.0782,4.30408 c -0.0846,4.65646 0.0143,5.03403 1.27318,4.85558 0.58547,-0.083 0.58681,-0.0928 0.65627,-4.78818 0.0764,-5.16351 -0.0433,-5.78664 -1.28078,-6.6678 -0.96761,-0.68899 -3.97973,-0.93278 -5.67176,-0.45904 -0.92547,0.25912 -1.27752,0.26079 -1.7493,0.008 -0.32486,-0.17386 -0.80614,-0.27467 -1.06951,-0.22403 -0.44937,0.0864 -0.48307,0.44401 -0.5475,5.80956 -0.0377,3.14462 -0.0128,5.86324 0.0556,6.04139 0.15727,0.40985 1.21301,0.42192 1.61645,0.0185 z m -51.06057,-5.5146 c -0.21038,-0.13339 -0.30542,-0.58337 -0.25452,-1.20504 l 0.0812,-0.99216 3.91073,-0.0704 c 2.66744,-0.048 4.02276,0.0226 4.26312,0.22205 0.43319,0.35952 0.46163,1.5462 0.0469,1.96084 -0.35621,0.35623 -7.50075,0.43145 -8.04755,0.0848 z m 7.8007,-0.25622 c 0.19227,-0.1219 0.30223,-0.53254 0.25451,-0.95054 l -0.084,-0.73593 h -3.94498 c -3.93397,0 -3.94521,10e-4 -4.02874,0.59117 -0.18089,1.27686 -0.061,1.31797 3.82987,1.3138 1.99915,-0.002 3.78716,-0.10052 3.97336,-0.2185 z m 44.00566,-21.34505 c 0.0764,-0.19912 0.32567,-0.27357 0.61183,-0.18274 0.64752,0.20551 2.24316,-0.32791 2.98118,-0.99662 0.32859,-0.29772 0.81371,-0.96303 1.07806,-1.47847 0.26434,-0.51544 0.60745,-1.01555 0.76248,-1.11135 0.15501,-0.0959 1.78872,-0.33151 3.63047,-0.52376 2.62881,-0.27443 3.41937,-0.44586 3.67776,-0.79751 0.18103,-0.24637 0.84504,-2.10865 1.4756,-4.13841 2.03967,-6.5657 2.66379,-8.22558 4.11505,-10.94414 0.78463,-1.46982 1.69057,-3.21276 2.01319,-3.87318 0.69693,-1.42665 1.50496,-4.20798 1.28608,-4.42686 -0.085,-0.085 -0.47603,0.0721 -0.86905,0.34907 -1.83279,1.29158 -3.6655,1.91245 -4.00824,1.35788 -0.0783,-0.12661 0.32063,-1.35783 0.88642,-2.73603 3.00498,-7.31986 3.58965,-8.88443 3.93682,-10.53481 0.37622,-1.7885 0.51924,-4.82402 0.22729,-4.82402 -0.0836,0 -0.65801,0.56281 -1.27647,1.25068 -1.0765,1.19734 -3.036,2.56705 -3.67241,2.56705 -0.4047,0 -0.21035,-0.8769 0.81791,-3.69047 0.78697,-2.15333 0.83699,-2.48895 0.83453,-5.59932 -0.002,-3.57177 -0.24663,-4.55146 -1.78643,-7.17894 -0.78559,-1.34052 -0.72488,-1.39043 -1.47865,1.21566 -0.79676,2.75479 -3.06957,5.24685 -5.349,5.86505 -1.45029,0.39333 -4.01935,0.10529 -5.58755,-0.62635 -2.02296,-0.94389 -3.34637,-2.25356 -4.36992,-4.32457 -1.14095,-2.30853 -1.46465,-4.39064 -1.13413,-7.29483 0.39791,-3.4963 1.19304,-8.66555 1.35836,-8.83086 0.084,-0.084 1.27153,0.12193 2.63891,0.45769 1.99174,0.48907 3.11879,0.60625 5.66757,0.58927 3.7972,-0.0253 5.48877,-0.41692 8.89066,-2.05835 2.06447,-0.99611 2.7452,-1.50173 4.86248,-3.6116 2.87147,-2.86144 4.29645,-5.11891 5.48472,-8.68895 1.11211,-3.34126 1.48019,-6.05968 1.30517,-9.63935 -0.40221,-8.22627 -2.65139,-13.10347 -12.08728,-26.2104 -6.21245,-8.62941 -8.20616,-13.1206 -8.19747,-18.46627 0.012,-7.409098 4.1732,-13.076459 12.72198,-17.326908 4.69175,-2.332737 7.89729,-5.074837 9.90372,-8.471871 2.46507,-4.173582 3.36359,-9.893703 2.30818,-14.694166 -0.28051,-1.275879 -0.99976,-3.023084 -1.17312,-2.84973 -0.0715,0.07153 -0.30391,0.799733 -0.5164,1.618228 -0.21248,0.818495 -0.80568,2.289893 -1.31821,3.269775 -1.08171,2.068054 -4.00587,5.217557 -4.84425,5.217557 -0.66882,0 -0.67018,0.03926 0.0806,-2.311128 2.06474,-6.464179 0.10123,-14.586208 -4.84436,-20.038628 l -1.29468,-1.427353 -0.17227,1.853588 c -0.26381,2.838552 -1.01402,4.680897 -3.33082,8.179715 -3.65568,5.520797 -4.34236,7.3574 -4.32978,11.580428 0.007,2.301654 0.11293,3.071307 0.59655,4.326754 1.22254,3.173864 0.87469,3.509186 -1.3414,1.29309 -1.60693,-1.606924 -2.86102,-3.978908 -3.28599,-6.215096 -0.16391,-0.862468 -0.37223,-1.568124 -0.46295,-1.568124 -0.21542,0 -1.12513,2.137019 -1.46266,3.435951 -1.1871,4.568473 -0.0183,9.044831 3.20753,12.283431 0.8749,0.878382 1.59071,1.733768 1.59071,1.900855 0,0.167089 -0.44859,0.76626 -0.99687,1.331491 -1.44299,1.487624 -4.44499,5.573847 -5.37026,7.309827 -3.20705,6.017045 -3.61185,13.566356 -1.08912,20.311434 1.4349,3.83653 4.33694,8.76152 8.47531,14.38333 7.04268,9.56719 9.67895,15.44714 9.66615,21.55942 -0.01,4.62178 -1.60853,8.70402 -4.56825,11.66373 -3.68893,3.68894 -8.56567,4.70479 -13.49789,2.81167 -2.52301,-0.9684 -3.65794,-2.02287 -4.79979,-4.45951 -2.29982,-4.90768 -5.85673,-8.75412 -12.45254,-13.46616 -6.93603,-4.95509 -10.20371,-8.41786 -12.29411,-13.02812 -1.96892,-4.34239 -2.3572,-8.12048 -1.51611,-14.75259 0.31369,-2.47354 0.52066,-5.36238 0.48321,-6.74465 -0.0534,-1.96858 0.002,-2.41789 0.30216,-2.41789 0.90297,0 2.25912,4.706 2.89842,10.05791 0.44379,3.71513 0.85026,6.02234 1.16112,6.59088 0.13126,0.24005 0.34131,-0.14122 0.63099,-1.14531 0.23883,-0.82784 1.11407,-3.2516 1.94498,-5.38613 3.02674,-7.77542 3.824,-12.862 2.90453,-18.530996 -0.44765,-2.759893 -1.14434,-5.09293 -2.31804,-7.762398 -0.98258,-2.234783 -0.9924,-2.276286 -0.5391,-2.276286 0.75736,0 3.44961,3.476909 4.82837,6.235614 1.067,2.134948 1.97946,5.44203 2.31568,8.392947 l 0.31969,2.805709 0.45426,-0.861779 c 1.4398,-2.731503 2.59868,-7.095552 2.95193,-11.116359 0.28917,-3.291246 -0.19023,-7.717928 -1.1761,-10.860036 -0.86718,-2.763766 -2.79671,-6.4899 -4.54622,-8.779213 -2.13283,-2.790891 -1.82151,-3.091094 1.17062,-1.128801 2.53709,1.66386 4.69709,3.826866 6.26794,6.276637 2.19072,3.416478 2.01541,3.316823 2.23872,1.272575 0.52193,-4.777892 -1.28657,-11.396323 -4.40155,-16.10788 -1.20633,-1.82463 -4.44771,-5.071312 -6.23583,-6.24602 -1.52064,-0.998991 -1.88836,-1.699084 -0.8908,-1.695977 2.45942,0.0076 7.95904,2.165389 10.32825,4.052205 0.74612,0.594206 1.42891,1.008053 1.5173,0.919659 0.25825,-0.258246 -0.98004,-3.607362 -1.96475,-5.313947 -0.49778,-0.86271 -1.93677,-2.611633 -3.19774,-3.886497 -2.01091,-2.033067 -2.62893,-2.484421 -5.0287,-3.672618 -1.50482,-0.745075 -2.73604,-1.44684 -2.73604,-1.559478 0,-0.112633 0.72731,-0.664135 1.61625,-1.225549 2.08287,-1.315453 3.98598,-3.338986 4.96583,-5.280048 0.79378,-1.572482 1.47866,-3.801725 1.241,-4.039384 -0.0727,-0.07271 -0.6887,0.20674 -1.36887,0.621011 -1.81853,1.107626 -5.05566,2.029314 -8.30171,2.363695 -2.52036,0.259626 -3.66413,0.222665 -9.60568,-0.31041 -10.72656,-0.962387 -29.56549,-0.812985 -35.84118,0.284239 -0.94284,0.164845 -2.21891,0.754831 -4.19949,1.94162 -3.71339,2.225119 -6.53556,4.120731 -6.53556,4.389848 0,0.118113 0.1718,0.701685 0.38177,1.296818 0.20998,0.595132 0.38177,1.276762 0.38177,1.514732 0,0.302922 -1.04947,0.94805 -3.49957,2.151235 -5.06244,2.486042 -10.498742,5.52582 -10.498742,5.87051 0,0.86153 0.88692,3.061511 1.763392,4.374044 0.54746,0.819813 1.07641,1.833504 1.17546,2.252645 0.37893,1.603533 1.41666,3.124488 2.53746,3.719077 0.59949,0.318021 1.27649,0.893976 1.50446,1.279902 0.51129,0.865545 1.89918,1.88612 2.15493,1.584606 0.10362,-0.122199 0.33978,-0.852104 0.52473,-1.622012 0.55472,-2.308985 0.67702,-2.488534 2.22861,-3.271609 3.19931,-1.614657 5.87506,-1.957647 8.27171,-1.060313 1.94193,0.727074 3.1055,1.803035 4.07031,3.763831 0.76429,1.553302 0.8378,1.907924 0.82893,3.999551 -0.008,2.012313 -0.10076,2.477158 -0.74798,3.772386 -0.84251,1.685931 -2.11697,2.942042 -3.87805,3.822224 -1.60264,0.800993 -2.10145,0.905443 -4.57584,0.958179 l -2.08519,0.04444 -1.3344,-1.062465 c -1.51055,-1.202717 -1.59019,-1.161836 -1.87586,0.963025 -0.10111,0.751785 -0.45944,1.898235 -0.79638,2.547668 -0.60044,1.157315 -0.60451,1.208565 -0.20523,2.578101 0.40842,1.400811 2.16287,4.932917 2.75044,5.537227 0.25112,0.258287 0.6615,0.0447 2.06898,-1.076899 2.05976,-1.64137 4.26163,-2.842291 7.42393,-4.049071 1.25614,-0.479357 3.21798,-1.341215 4.35966,-1.915242 1.14168,-0.574026 2.1356,-1.043684 2.20869,-1.043684 0.41361,0 0.0108,1.243923 -0.79856,2.462382 -2.58938,3.901047 -5.382,6.048527 -11.36468,8.739245 -4.9914,2.244886 -6.73868,3.222482 -9.56189,5.349836 -3.54022,2.667635 -6.45092,6.185219 -8.3091,10.041548 -1.130786,2.34677 -2.064036,5.1439 -1.803231,5.40471 0.0801,0.0801 0.634698,-0.30459 1.232484,-0.85483 1.810202,-1.66618 4.732077,-3.4751 6.495337,-4.02123 0.93291,-0.28896 0.68554,0.26249 -0.99211,2.21173 -3.078526,3.57687 -4.994211,7.20206 -6.030652,11.41223 -0.615812,2.50151 -0.960409,5.06707 -0.680586,5.06707 0.106127,0 1.532468,-1.29135 3.169513,-2.86966 4.059545,-3.91389 8.669705,-6.95253 8.669705,-5.71438 0,0.3885 -2.75112,5.37941 -3.82817,6.94487 -1.37787,2.00267 -18.336229,16.34547 -21.010825,17.77025 -1.524401,0.81206 -2.946563,0.8299 -4.526695,0.0568 -1.610806,-0.78809 -2.517962,-1.87494 -3.361461,-4.02729 -0.71141,-1.8153 -1.040545,-2.21954 -2.645892,-3.24969 -1.022365,-0.65605 -1.438668,-0.76645 -2.890108,-0.76645 -1.205776,0 -1.695693,-0.0938 -1.695693,-0.32494 0,-0.2478 0.441577,-0.28881 1.860505,-0.17275 1.514952,0.12392 2.070387,0.29742 2.99055,0.93418 1.656913,1.14661 2.204084,1.83026 2.913303,3.63996 0.350101,0.89336 0.95108,1.95555 1.335507,2.36043 1.562004,1.64513 3.902412,2.16329 5.671815,1.25571 1.323923,-0.67904 6.848029,-5.13144 15.312026,-12.34132 4.952318,-4.21855 5.034088,-4.30466 6.649938,-7.00122 1.64158,-2.73952 2.46166,-4.23836 2.46166,-4.4991 0,-0.87253 -4.83106,2.66591 -8.232641,6.02988 -1.66197,1.64358 -3.134057,2.91895 -3.271306,2.83412 -0.358385,-0.2215 -0.0048,-3.34198 0.693348,-6.11115 1.034435,-4.10576 3.006335,-7.90252 5.765379,-11.10085 0.69435,-0.80492 1.10902,-1.46347 0.9215,-1.46347 -0.65184,0 -4.157567,2.24806 -5.715141,3.66484 -0.86191,0.784 -1.635003,1.42547 -1.717971,1.42547 -0.621996,0 0.701884,-4.56809 2.101938,-7.25281 1.195501,-2.292457 3.390065,-5.247399 5.286254,-7.117828 3.08917,-3.047191 6.59536,-5.286428 12.0586,-7.701271 1.74978,-0.773436 3.69683,-1.670289 4.32675,-1.993008 1.41291,-0.723857 4.12825,-2.909626 5.51668,-4.440765 1.09075,-1.20287 2.69194,-3.583907 2.52342,-3.752426 -0.0542,-0.05424 -0.79053,0.250644 -1.63619,0.677532 -0.84566,0.426888 -2.6991,1.238914 -4.11876,1.804504 -4.21408,1.678884 -6.33787,2.879472 -8.41797,4.758726 -0.51821,0.468169 -1.09675,0.782856 -1.29758,0.70579 -0.48326,-0.185441 -1.82374,-2.427362 -2.7503,-4.599785 -0.86894,-2.037344 -0.9579,-3.47184 -0.28384,-4.577197 0.26273,-0.430848 0.6176,-1.612887 0.78861,-2.626753 0.18098,-1.072949 0.455,-1.898677 0.65563,-1.975665 0.18958,-0.07275 1.00419,0.404964 1.81027,1.061583 l 1.46557,1.193853 2.17231,-0.170838 c 3.68372,-0.289697 6.328,-1.898033 7.70044,-4.683645 0.48083,-0.975951 0.58012,-1.591938 0.57953,-3.595605 -7.7e-4,-2.685177 -0.43741,-3.899059 -1.99922,-5.558002 -1.45854,-1.549254 -2.53501,-1.948693 -5.25375,-1.949485 -2.25934,-6.56e-4 -2.54586,0.06041 -4.36937,0.931206 -1.07332,0.512551 -2.07529,1.163255 -2.22662,1.446011 -0.15133,0.282756 -0.45518,1.290395 -0.67521,2.239197 -0.22005,0.948803 -0.45579,1.815225 -0.52387,1.92538 -0.21622,0.349861 -1.45576,-0.467811 -2.64449,-1.744477 -0.63237,-0.679145 -1.51017,-1.424276 -1.95066,-1.655843 -0.99687,-0.52406 -1.50841,-1.293657 -2.28862,-3.443124 -0.33639,-0.926707 -0.88463,-2.009403 -1.21834,-2.405993 -0.71258,-0.846846 -1.702642,-3.333304 -1.75499,-4.407467 -0.03271,-0.670446 0.15561,-0.869031 1.744986,-1.840514 0.979884,-0.598939 4.072234,-2.250471 6.871904,-3.67007 2.79967,-1.4196 5.12819,-2.743279 5.17449,-2.941509 0.0463,-0.198231 -0.0914,-0.876005 -0.3062,-1.506167 -0.21471,-0.63016 -0.33665,-1.284277 -0.27094,-1.453592 0.12126,-0.312495 3.54019,-2.583962 7.51658,-4.993859 2.46418,-1.493414 2.89298,-1.586032 9.51984,-2.05624 10.11008,-0.717356 19.91409,-0.588265 31.09301,0.409411 7.96134,0.71052 13.23624,-0.01853 16.90895,-2.337017 1.5376,-0.970641 1.85628,-0.857933 1.66546,0.589011 -0.39338,2.982814 -3.29634,7.164511 -6.22438,8.966147 -0.72645,0.446991 -1.32082,0.858874 -1.32082,0.915297 0,0.05642 0.94489,0.576471 2.09975,1.155663 4.96151,2.488325 8.50684,6.563494 10.22308,11.750873 0.45222,1.366855 0.52462,2.472626 0.16188,2.472626 -0.13257,0 -1.02018,-0.591773 -1.97249,-1.315049 -0.9523,-0.723277 -2.5366,-1.688617 -3.52066,-2.1452 -1.89599,-0.879692 -5.70568,-1.986425 -5.95344,-1.7295 -0.0811,0.08403 0.25354,0.454882 0.74349,0.824125 0.48994,0.369241 1.66611,1.408969 2.61373,2.310506 5.17876,4.926976 7.862,11.298844 7.84861,18.638063 -0.008,4.256597 -0.33455,5.170315 -1.24802,3.489504 -1.25766,-2.314164 -3.45788,-5.34691 -4.78574,-6.596589 -1.59741,-1.503374 -3.7017,-3.040748 -4.16202,-3.040748 -0.15291,0 0.34116,0.887621 1.09793,1.97249 3.88854,5.574419 5.49916,11.274839 5.17834,18.327489 -0.19629,4.315116 -1.27971,8.660571 -3.02146,12.118812 -1.09872,2.181482 -1.4736,2.060892 -1.48329,-0.477167 -0.008,-2.154954 -0.41181,-4.392816 -1.28245,-7.110781 -0.77254,-2.411713 -2.81552,-6.143286 -3.97985,-7.269313 -0.78111,-0.755416 -0.79501,-0.832834 0.52577,2.926922 1.33817,3.809243 1.83141,7.731285 1.46844,11.676577 -0.36995,4.021164 -1.13451,6.957474 -3.15595,12.120564 -0.90429,2.30973 -1.72539,4.5431 -1.82465,4.96305 -0.70927,3.00078 -0.94516,3.27344 -1.55966,1.80276 -0.36593,-0.87578 -0.79223,-3.36387 -1.51677,-8.85254 -0.36793,-2.78718 -1.20733,-6.18262 -1.64215,-6.64254 -0.10553,-0.11161 -0.25944,1.03366 -0.34194,2.54516 -0.0825,1.51148 -0.3416,4.17982 -0.57579,5.92959 -1.49678,11.18386 2.02303,18.19832 13.11949,26.14514 5.10152,3.65349 6.97438,5.22456 8.91215,7.47601 1.96094,2.27838 3.1043,4.05145 4.34669,6.74059 0.88728,1.92049 1.08262,2.15872 2.44266,2.9791 2.44481,1.47469 3.68995,1.81005 6.69582,1.8034 3.10791,-0.007 4.37768,-0.40225 6.84095,-2.13012 3.7075,-2.60067 5.88479,-7.27005 5.88479,-12.62042 0,-6.03117 -2.21821,-11.17289 -8.75353,-20.29027 -4.46158,-6.22434 -6.24102,-9.01761 -7.81446,-12.2668 -2.63903,-5.44963 -3.61752,-10.29898 -3.06268,-15.178438 0.63771,-5.608052 3.05424,-10.522684 7.69231,-15.644197 0.68681,-0.758389 1.24873,-1.453849 1.24873,-1.545466 0,-0.09161 -0.68904,-0.884144 -1.53121,-1.761173 -1.01852,-1.060686 -1.84787,-2.260977 -2.47696,-3.584825 -0.8593,-1.808316 -0.95447,-2.224632 -1.04116,-4.554763 -0.11449,-3.075856 0.20255,-4.775074 1.30236,-6.981183 1.09803,-2.202542 1.53196,-2.175509 1.75775,0.109505 0.21516,2.177205 1.50242,4.920406 2.98706,6.365494 0.56592,0.550837 1.08861,0.941857 1.16152,0.868933 0.0729,-0.07293 -0.1146,-0.809938 -0.41684,-1.63781 -0.79524,-2.178611 -0.78826,-6.133483 0.0155,-8.755815 0.7641,-2.493128 1.19938,-3.323752 3.75699,-7.169529 2.47909,-3.727705 3.14362,-5.382995 3.33025,-8.295333 0.085,-1.327038 0.24163,-2.099749 0.42552,-2.099749 0.85925,0 4.42628,4.570317 5.62789,7.210823 1.36503,2.999609 1.96328,5.703535 1.98044,8.950875 0.0152,2.87664 -0.0722,3.464161 -0.99436,6.681017 -0.27043,0.943426 0.28931,0.668271 1.81212,-0.890802 1.72904,-1.770193 3.31076,-4.819932 3.75299,-7.236125 0.17116,-0.935234 0.42575,-1.736956 0.56573,-1.781604 0.13998,-0.04465 0.50878,0.434213 0.81955,1.064138 1.96276,3.97843 1.91657,10.542246 -0.10827,15.385021 -1.95012,4.664076 -5.6553,8.267139 -11.52818,11.210408 -5.87705,2.945356 -9.47158,6.460091 -11.27446,11.024171 -0.66988,1.695826 -0.7884,2.366819 -0.88664,5.019981 -0.0849,2.292992 -0.01,3.465738 0.29776,4.667315 1.07328,4.189451 3.17524,8.067601 7.95134,14.670391 7.59744,10.50318 10.13315,15.27132 11.46744,21.56331 0.691,3.25851 0.61947,9.0561 -0.14843,12.02976 -1.82423,7.06424 -5.81211,12.22263 -11.60651,15.01322 -3.19848,1.54042 -5.21361,1.99354 -8.90802,2.00314 -2.36349,0.006 -3.58911,-0.12545 -5.41962,-0.58187 -1.30099,-0.32439 -2.39575,-0.54711 -2.43282,-0.49493 -0.10111,0.14237 -1.1561,7.24617 -1.34109,9.03018 -0.3302,3.18441 0.84688,6.82585 2.85139,8.8211 1.4301,1.42347 3.45221,2.32134 5.48688,2.43631 2.20809,0.12476 3.33979,-0.27167 4.8751,-1.70777 1.45846,-1.36423 2.28147,-2.86769 2.73465,-4.99566 0.17888,-0.83989 0.40827,-1.62253 0.50978,-1.73919 0.4862,-0.55879 2.52595,2.86752 3.1629,5.31298 0.76539,2.93853 0.40218,6.69689 -1.00969,10.44787 -0.33765,0.89705 -0.5432,1.63101 -0.45679,1.63101 0.56837,0 2.45345,-1.46006 3.27363,-2.53554 0.53778,-0.7052 1.12388,-1.28218 1.30242,-1.28218 0.88491,0 0.71424,4.11587 -0.30436,7.34035 -0.36436,1.15335 -1.45775,3.99297 -2.42978,6.31024 -1.7787,4.24036 -1.98863,4.929 -1.50267,4.929 0.39764,0 2.2989,-0.99462 3.21794,-1.68342 1.0545,-0.79031 1.35319,-0.76599 1.35319,0.11019 0,1.35872 -0.81818,3.46407 -3.02891,7.79404 -1.78092,3.48814 -2.4843,5.21717 -3.57815,8.79561 -1.64492,5.38123 -2.47361,7.54958 -2.95606,7.73471 -0.19932,0.0765 -1.65101,0.26328 -3.22596,0.41509 -3.91279,0.37715 -3.79247,0.33084 -4.57633,1.76202 -0.80551,1.47073 -1.77926,2.08167 -3.66723,2.30087 -1.0233,0.11878 -1.2797,0.0788 -1.17882,-0.18416 z m -82.34473,-1.77609 c 0.16776,-0.20488 0.63372,-0.25786 1.37471,-0.15629 1.72478,0.2364 3.18865,-0.43517 4.28995,-1.96811 l 0.90244,-1.25613 h 4.33222 4.33223 l 2.68088,-2.52734 c 3.50928,-3.30828 5.39105,-4.81673 9.39849,-7.53396 3.60974,-2.44758 6.74464,-4.88241 6.74464,-5.23848 0,-0.12409 -0.47925,-0.22563 -1.06499,-0.22563 -0.58575,0 -1.73107,-0.18689 -2.54515,-0.41531 -2.07687,-0.58274 -1.99301,-1.06973 0.36507,-2.11996 3.1032,-1.38209 5.77157,-3.10082 7.87591,-5.07299 1.79454,-1.68181 3.50574,-3.93765 3.21075,-4.23264 -0.0607,-0.0607 -0.73661,-0.008 -1.50219,0.11627 -1.88667,0.30707 -5.06682,-0.31934 -5.06682,-0.99802 0,-0.14519 0.62766,-0.66549 1.3948,-1.15623 1.72179,-1.10142 3.21946,-2.63492 3.98777,-4.08318 0.6656,-1.25469 0.57695,-1.50547 -0.4008,-1.13373 -1.7805,0.67695 -4.81545,-0.002 -6.51662,-1.45838 -1.52859,-1.30843 -2.11975,-2.63127 -2.13167,-4.77011 -0.008,-1.51515 0.11078,-2.01455 0.79715,-3.33915 1.50405,-2.90258 4.4772,-5.17958 9.09349,-6.96427 2.45654,-0.94971 2.38998,-0.81851 1.9114,-3.76762 -1.13861,-7.01645 -4.94241,-11.59187 -11.99553,-14.42888 -2.27831,-0.91641 -2.46423,-0.94941 -4.53899,-0.80581 -6.11609,0.42332 -12.69662,2.60979 -17.68879,5.87733 -0.83989,0.54975 -2.57471,2.04705 -3.85513,3.32736 -1.98878,1.98857 -2.49548,2.67706 -3.47694,4.7243 -1.72122,3.59031 -2.51074,7.73046 -2.10043,11.01442 l 0.17715,1.41789 1.72851,-1.79841 c 2.2423,-2.33299 2.50716,-2.29218 3.10301,0.47797 0.83091,3.86294 3.07493,7.38693 7.89987,12.40589 1.51777,1.57879 2.76007,3.08444 2.76067,3.34587 0.004,1.45155 -6.64764,9.19387 -10.59955,12.33883 -2.22297,1.76907 -2.88639,1.73046 -4.81787,-0.28037 -1.88561,-1.96309 -3.08597,-2.54787 -5.22991,-2.54787 -1.387866,0 -1.838554,0.11866 -2.824032,0.74365 -1.254199,0.79538 -1.860663,0.7805 -0.842153,-0.0206 1.564128,-1.23035 4.324655,-1.61454 6.142695,-0.85491 0.4964,0.2074 1.67583,1.12365 2.62098,2.03612 2.5864,2.49696 2.91043,2.39943 7.98376,-2.40311 3.07303,-2.90898 7.05595,-7.95121 7.05595,-8.93255 0,-0.16135 -1.27857,-1.68439 -2.84128,-3.38455 -1.56272,-1.70014 -3.44366,-3.89289 -4.17989,-4.87277 -1.72207,-2.29198 -3.26569,-5.5009 -3.66553,-7.61999 -0.17329,-0.9184 -0.41701,-1.66981 -0.54161,-1.66981 -0.28861,0 -2.4719,2.17736 -3.1901,3.18143 -0.44925,0.62806 -0.60667,0.70537 -0.88719,0.4357 -0.57284,-0.55072 -0.40084,-6.58227 0.2592,-9.0892 1.84882,-7.02207 6.89437,-12.14788 15.34037,-15.58439 3.5199,-1.43216 6.78017,-2.24578 10.56035,-2.63536 l 3.04733,-0.31406 2.14809,0.81919 c 8.01029,3.05483 12.31183,8.41545 13.10147,16.32719 0.19714,1.97538 0.2467,1.91662 -2.55439,3.02868 -5.82577,2.31287 -9.12574,5.50586 -9.48497,9.17749 -0.43039,4.39903 3.62224,7.49271 8.3344,6.36228 0.71792,-0.17223 1.3718,-0.24664 1.45308,-0.16536 0.5662,0.56619 -2.20474,4.36417 -4.22186,5.78668 -0.84179,0.59365 -1.4786,1.16335 -1.41515,1.26602 0.0635,0.10266 0.69199,0.32499 1.39674,0.49406 1.00122,0.24019 1.63758,0.24019 2.9106,-1e-5 0.89608,-0.16908 1.75406,-0.23027 1.90663,-0.13599 0.4713,0.29129 -1.00367,2.66414 -2.78833,4.48571 -1.88311,1.92203 -4.73456,3.86701 -7.81459,5.33033 -1.16132,0.55175 -2.1115,1.11338 -2.1115,1.24807 0,0.38386 1.75479,0.77487 3.48457,0.77642 0.86662,7.9e-4 1.64003,0.10553 1.71866,0.23276 0.25028,0.40495 -2.98567,3.12185 -6.79917,5.70861 -4.5216,3.06707 -6.35885,4.51934 -10.05062,7.9446 l -2.86581,2.65892 h -4.27525 -4.27524 l -0.81958,1.16275 c -1.07407,1.52379 -2.5019,2.17419 -4.57624,2.08455 -1.1616,-0.0501 -1.46356,-0.13954 -1.27012,-0.3758 z m 65.25638,-13.52433 c -0.24844,-0.40198 1.60883,-2.26294 2.70748,-2.71285 0.59812,-0.24494 1.75361,-0.44932 2.56773,-0.45415 1.27037,-0.007 1.81159,0.1603 3.81772,1.18411 3.24623,1.65668 4.26169,1.57726 5.32722,-0.41668 0.55329,-1.03538 0.57264,-1.29781 0.54955,-7.45148 -0.0131,-3.50805 -0.0955,-6.66325 -0.18287,-7.01155 -0.14908,-0.59394 -0.32035,-0.6534 -2.75784,-0.9576 -3.94226,-0.492 -7.81545,-1.87263 -10.84279,-3.865 -0.46911,-0.30874 -0.82717,-0.41901 -0.82717,-0.25473 0,0.29896 0.78707,1.84376 1.33315,2.61662 0.54846,0.77624 -0.0288,0.97221 -1.97443,0.67031 -4.26639,-0.66196 -8.52794,-2.91643 -11.7027,-6.19103 -4.08808,-4.21666 -6.05522,-9.34194 -6.7434,-17.5695 -0.58663,-7.01333 -2.1638,-10.88338 -5.73111,-14.06286 -2.06924,-1.84429 -4.79425,-3.28894 -11.95892,-6.33998 -3.49958,-1.49028 -7.62272,-3.27294 -9.16253,-3.96147 -3.49103,-1.561 -9.49922,-4.80218 -9.6552,-5.20859 -0.0645,-0.16795 0.83631,-0.9377 2.01542,-1.72224 1.17258,-0.78022 2.79857,-2.07522 3.6133,-2.87779 1.42944,-1.40811 3.16875,-4.18333 2.83252,-4.51956 -0.09,-0.09 -1.06079,0.51881 -2.15727,1.35295 -2.81038,2.13798 -5.399,3.75803 -12.68321,7.93758 -3.49958,2.00799 -7.6765,4.43412 -9.282031,5.3914 -2.981278,1.77754 -3.973179,2.12218 -3.727475,1.2951 0.366993,-1.23531 0.441138,-1.85841 0.281112,-2.36259 -0.234351,-0.73839 -1.084049,-0.56455 -3.898028,0.7975 -3.407073,1.64911 -4.915296,3.30909 -5.61942,6.18481 -0.411165,1.67924 -0.830494,2.43383 -1.964693,3.53548 -1.358122,1.31914 -4.331125,2.21815 -4.804172,1.45275 -0.09231,-0.14939 0.178401,-0.25453 0.655366,-0.25453 1.432729,0 2.861438,-0.59496 3.955905,-1.64738 0.851476,-0.81876 1.180677,-1.40913 1.635979,-2.93389 0.79582,-2.66509 1.336728,-3.63793 2.591095,-4.66016 2.099276,-1.71078 6.532266,-3.74468 7.419604,-3.40418 0.318441,0.12221 0.412773,0.5142 0.412773,1.71524 v 1.55685 l 1.081698,-0.62534 c 17.188317,-9.93667 20.421157,-11.88961 23.423647,-14.15008 1.50938,-1.13635 2.85512,-2.06609 2.99055,-2.06609 0.44814,0 0.25577,1.27068 -0.38328,2.53179 -0.90814,1.79211 -3.14816,4.09244 -5.62061,5.77191 -1.18188,0.80282 -2.14887,1.52974 -2.14887,1.61538 0,0.0856 1.40302,0.91998 3.11781,1.85406 3.07617,1.67566 7.70495,3.78505 17.06365,7.77609 6.54069,2.78929 8.2578,3.80138 10.87741,6.41129 3.34823,3.33583 4.54287,6.17287 5.09068,12.08945 0.88889,9.60049 2.529,14.22481 6.56107,18.49903 3.43879,3.64529 7.34489,5.716 12.07372,6.40054 1.09799,0.15894 1.14881,0.0197 0.43461,-1.19081 -0.6862,-1.16303 -1.03647,-2.40867 -0.73048,-2.59779 0.13162,-0.0813 1.01942,0.37075 1.97291,1.00462 2.97316,1.97655 5.86779,2.97339 10.28997,3.54358 1.50747,0.19437 2.81845,0.43101 2.91329,0.52584 0.29395,0.29396 0.62596,7.49566 0.50303,10.91107 -0.10231,2.84285 -0.19926,3.41404 -0.7811,4.6033 -1.14286,2.33593 -2.24144,2.47828 -5.71853,0.74099 -2.12464,-1.06154 -2.60811,-1.20634 -3.96551,-1.18756 -1.9214,0.0266 -3.53118,0.79305 -4.26006,2.0284 -0.55595,0.94229 -0.6199,0.99332 -0.82627,0.65942 z m -99.359919,-9.75927 c -0.342453,-0.34245 -0.408807,-2.44633 -0.09285,-2.94411 0.158451,-0.24963 1.668823,-0.30721 6.67712,-0.25452 l 6.472349,0.068 0.07764,1.35686 c 0.04473,0.78164 -0.04941,1.50996 -0.222049,1.71799 -0.402851,0.4854 -12.430621,0.53728 -12.912213,0.0556 z m 12.802101,-1.47618 v -1.39984 h -6.362874 -6.362873 l -0.08238,0.8624 c -0.0453,0.47431 -0.01399,1.13487 0.06959,1.46789 l 0.151972,0.60551 6.293282,-0.068 6.293283,-0.068 z m -29.376273,0.40611 c -0.181202,-0.21834 -0.2699,-0.99785 -0.223809,-1.96693 l 0.07635,-1.60525 3.054179,-1.6859 c 1.679799,-0.92724 4.067275,-2.23114 5.305503,-2.89756 1.238228,-0.66641 2.154482,-1.30526 2.03612,-1.41966 -0.118364,-0.11437 -2.422332,-1.37429 -5.11993,-2.79974 -2.697599,-1.42546 -5.016867,-2.80128 -5.153927,-3.05738 -0.410372,-0.76678 -0.313586,-3.29004 0.132769,-3.46131 0.326638,-0.12535 13.859919,6.81708 14.836011,7.61072 0.223263,0.18153 0.304988,0.80006 0.254515,1.9263 l -0.07435,1.65891 -4.835784,2.64117 c -10.151881,5.54467 -9.960633,5.45066 -10.287654,5.05663 z m 6.930633,-3.50588 c 8.790912,-4.78948 8.065546,-4.24576 8.065546,-6.04576 v -1.50369 l -7.253018,-3.85336 c -3.98916,-2.11934 -7.367846,-3.78239 -7.508191,-3.69565 -0.365129,0.22566 -0.315787,2.75438 0.06297,3.22718 0.174979,0.21843 2.150651,1.34811 4.390383,2.5104 4.484822,2.32736 5.9811,3.20343 5.9811,3.50191 0,0.10863 -2.319267,1.44382 -5.153927,2.96719 -2.83466,1.52337 -5.238072,2.89338 -5.340916,3.04445 -0.234168,0.344 -0.254526,2.80252 -0.02511,3.03193 0.09332,0.0933 0.272005,0.16968 0.397074,0.16968 0.125069,0 2.997907,-1.50942 6.384083,-3.35428 z M 24.076,159.47972 C 12.703533,148.10407 3.3987877,138.62631 3.3987877,138.41803 c 0,-0.41636 41.4566393,-41.990721 41.8718193,-41.990721 0.43979,0 6.995046,6.726721 6.995046,7.178011 0,0.23461 -7.587726,8.06237 -16.861613,17.39506 -9.273889,9.33268 -16.900375,17.07227 -16.947749,17.19909 -0.04737,0.12683 7.511719,7.91207 16.797985,17.30055 9.286266,9.38848 16.924166,17.24781 16.973113,17.46519 0.106748,0.47406 -6.513234,7.19752 -7.086743,7.19752 -0.213089,0 -9.692178,-9.30736 -21.064646,-20.68301 z m 24.686534,17.18709 c 1.786733,-1.78275 3.248605,-3.41515 3.248605,-3.62755 0,-0.21239 -7.619261,-8.00219 -16.931692,-17.31069 -10.877641,-10.87303 -16.906635,-17.07691 -16.861614,-17.35071 0.03855,-0.23442 7.657804,-8.09706 16.931691,-17.47257 9.273889,-9.3755 16.861615,-17.12432 16.861615,-17.21959 0,-0.28477 -6.146795,-6.709646 -6.577297,-6.874841 -0.282932,-0.108515 -6.283566,5.729221 -20.849894,20.284081 -11.248945,11.2401 -20.5726968,20.65283 -20.7194484,20.91717 -0.2339942,0.42151 2.280626,3.02822 20.4397434,21.18837 11.388611,11.38925 20.819767,20.70774 20.958126,20.70774 0.138359,0 1.713433,-1.45864 3.500165,-3.24141 z m 173.324666,0.12018 c -1.85283,-1.85665 -3.36879,-3.54486 -3.36879,-3.75156 0,-0.20671 7.69168,-8.07063 17.09261,-17.47541 l 17.09262,-17.09958 -17.02899,-17.20469 c -9.36593,-9.46257 -17.06902,-17.38951 -17.11797,-17.61541 -0.0945,-0.43622 6.46788,-7.213031 6.98481,-7.213031 0.40569,0 41.69771,41.383261 41.80599,41.898371 0.10613,0.50473 -41.09635,41.83705 -41.7056,41.83705 -0.21224,0 -1.90185,-1.51909 -3.75468,-3.37574 z m 24.71518,-17.51734 c 11.29061,-11.35121 20.52839,-20.77171 20.52839,-20.93445 0,-0.16272 -9.33367,-9.62901 -20.74149,-21.03619 l -20.74149,-20.740314 -3.44286,3.433888 c -1.89358,1.888646 -3.41178,3.570346 -3.37381,3.737116 0.038,0.16679 6.48369,6.75237 14.32379,14.63462 7.8401,7.88225 15.50204,15.61863 17.02652,17.19194 l 2.77179,2.86057 -17.09015,17.18327 c -9.39958,9.4508 -17.09014,17.3245 -17.09014,17.49709 0,0.46879 6.41756,6.81103 6.89192,6.81103 0.22502,0 9.64691,-9.28736 20.93753,-20.63857 z M 87.743747,122.06969 c -2.92145,-3.02024 -8.735317,-9.40545 -12.571939,-13.80744 -1.464061,-1.67979 -3.852108,-4.28105 -5.306773,-5.78058 -1.605314,-1.65482 -2.591495,-2.865449 -2.509109,-3.080139 0.144214,-0.375814 1.799449,-0.683583 3.676482,-0.683583 h 1.13418 l -0.851559,-1.11098 c -1.59508,-2.081012 -4.332593,-5.251892 -4.534108,-5.251892 -0.110508,0 -0.873252,0.307804 -1.694991,0.684008 -2.668726,1.221787 -5.461608,0.794341 -7.562401,-1.157411 -0.847942,-0.787783 -1.694667,-2.334302 -1.694667,-3.095261 0,-0.485208 0.100612,-0.519678 1.085634,-0.371964 1.38791,0.208131 2.344281,-0.473 2.742949,-1.953539 0.33378,-1.239565 0.321638,-1.275698 -1.040887,-3.097633 l -1.079375,-1.443312 h -1.62588 c -0.894234,0 -1.994429,-0.158141 -2.444878,-0.351423 -0.969966,-0.416203 -2.649736,-2.102175 -2.371577,-2.380334 0.106832,-0.106832 0.413881,0.107297 0.682338,0.475827 0.89582,1.229761 1.750154,1.610968 3.91503,1.7469 l 2.02673,0.127257 1.366633,1.771844 c 1.485357,1.925768 1.53719,2.257076 0.646705,4.133631 -0.487593,1.027528 -1.768079,1.701197 -2.760248,1.452179 -0.883726,-0.221803 -0.826971,0.315995 0.19303,1.829086 1.702721,2.525853 4.839211,3.225843 7.998719,1.785127 0.86472,-0.394307 1.694096,-0.641597 1.843058,-0.549532 0.277472,0.171485 4.041467,4.517316 5.055793,5.837315 0.931034,1.211605 0.769946,1.429136 -1.058321,1.429136 -0.892393,0 -1.976718,0.07079 -2.409611,0.157424 l -0.78708,0.157412 3.756257,4.105707 c 2.06594,2.25814 5.113844,5.65189 6.773117,7.54166 3.81544,4.34547 11.630217,12.72574 11.867009,12.72574 0.0985,0 0.254468,-0.88761 0.346608,-1.97248 0.09214,-1.08488 0.344275,-2.83149 0.560301,-3.88136 0.387706,-1.88424 0.384291,-1.93405 -0.264882,-3.86259 -0.414382,-1.23103 -0.657657,-2.5135 -0.657657,-3.46695 0,-3.56982 2.172323,-9.33425 5.178446,-13.741399 0.791418,-1.160272 1.438949,-2.2015 1.438949,-2.313835 0,-0.112334 -2.605607,-2.483765 -5.790221,-5.269845 C 81.829143,81.369679 78.388626,78.208663 77.548643,77.033572 75.205044,73.755006 74.526046,70.971778 74.776044,65.668628 c 0.156396,-3.317598 0.120039,-3.905521 -0.33021,-5.339565 -1.311893,-4.178389 -4.670168,-6.435982 -9.613468,-6.462634 -1.277326,-0.0069 -2.452371,0.0678 -2.611209,0.165967 -0.18188,0.112407 0.225437,0.64847 1.100196,1.44795 1.900781,1.737209 2.516862,3.357637 2.278139,5.992023 -0.134417,1.483351 -0.274716,1.944103 -0.653748,2.146955 -0.832345,0.445457 -1.395061,0.0213 -2.086309,-1.572581 -0.610946,-1.408723 -0.780201,-1.585699 -2.090006,-2.185348 -1.174085,-0.537513 -1.645793,-0.623229 -2.676965,-0.486439 -0.688458,0.09133 -1.407365,0.225767 -1.597571,0.298756 -0.190205,0.07299 -0.416563,-0.05162 -0.503014,-0.276911 -0.08645,-0.22529 -0.0543,-0.346034 0.07144,-0.268321 0.125743,0.07771 0.782988,0.0138 1.460544,-0.142031 2.420763,-0.556753 4.62158,0.559451 5.751945,2.917252 0.512355,1.068713 0.826852,1.449574 1.147109,1.389175 0.348407,-0.06571 0.489686,-0.498133 0.671585,-2.055578 0.221688,-1.89813 0.202361,-2.027109 -0.513551,-3.426962 -0.498276,-0.9743 -1.16261,-1.771053 -2.011963,-2.412994 -1.416861,-1.070865 -1.569341,-1.494521 -0.631767,-1.755318 1.220162,-0.339403 4.970848,-0.235644 6.380307,0.176504 2.860505,0.836456 5.355655,3.050889 6.385037,5.666685 0.518836,1.318433 0.56079,1.809175 0.507407,5.935289 -0.06376,4.927806 0.225454,6.886397 1.337395,9.057174 1.479996,2.889309 2.280498,3.682422 14.531814,14.397685 3.359597,2.938375 6.191055,5.480141 6.292121,5.648368 0.10744,0.178769 -0.292297,0.918937 -0.961937,1.781301 -2.335752,3.007982 -4.278721,7.03708 -5.254698,10.89654 -0.656874,2.59759 -0.53125,5.48382 0.326897,7.51049 0.570505,1.34735 0.571729,1.37578 0.137026,3.18143 -0.241242,1.00207 -0.507235,2.93862 -0.591092,4.30346 -0.10251,1.66847 -0.252046,2.48153 -0.456387,2.48153 -0.167156,0 -1.439469,-1.17396 -2.827364,-2.60879 z M 130.65625,90.066136 c 0,-0.169403 1.06528,-1.355768 2.36729,-2.636369 6.8331,-6.720726 10.65523,-15.071485 10.31672,-22.540369 -0.11019,-2.432313 0.27326,-2.59329 1.30567,-0.548078 1.15141,2.280928 1.59245,4.51842 1.49295,7.574085 l -0.0845,2.593929 0.56711,-0.533341 c 0.82463,-0.77552 2.75856,-4.654683 3.22978,-6.478432 1.14001,-4.412261 0.57724,-9.09337 -1.57853,-13.130113 -0.35547,-0.665622 -0.57916,-1.27737 -0.49709,-1.359443 0.56699,-0.566978 3.45798,2.015095 4.65785,4.160124 0.41101,0.734768 0.83319,1.336061 0.93818,1.336203 0.37471,5.08e-4 0.17557,-4.241382 -0.31063,-6.61713 -0.72136,-3.524697 -2.727,-7.461992 -5.09007,-9.992343 -0.98414,-1.053809 -1.78935,-1.985396 -1.78935,-2.070194 0,-0.850133 3.25684,1.105556 5.29575,3.180023 6.3531,6.463921 7.40119,17.00421 2.70216,27.174656 -2.9487,6.382083 -9.51891,13.212591 -16.5793,17.23612 -3.2872,1.873296 -6.94402,3.269176 -6.94402,2.650672 z m 5.22485,-2.243928 c 13.05839,-6.642348 21.27349,-19.145834 20.66345,-31.450046 -0.25852,-5.214242 -1.95659,-9.448604 -5.16437,-12.877966 -1.17268,-1.253702 -3.08335,-2.715024 -3.28552,-2.51285 -0.0627,0.06265 0.40017,0.738217 1.02848,1.501269 1.5825,1.921877 3.52409,5.804396 4.19395,8.386528 0.72474,2.793571 0.97914,7.783844 0.43354,8.503847 -0.34619,0.456847 -0.42163,0.387268 -1.23283,-1.137005 -0.84713,-1.591801 -3.35529,-4.570398 -3.62559,-4.305606 -0.0754,0.07387 0.26532,1.20565 0.75715,2.515061 1.91201,5.090331 1.70808,9.629495 -0.64707,14.403124 -1.14255,2.315844 -2.82352,4.708527 -3.30793,4.708527 -0.10625,0 -0.14048,-1.46028 -0.0762,-3.245065 0.12168,-3.376523 -0.16047,-5.220936 -1.1274,-7.369484 l -0.43467,-0.96588 -0.21175,2.711033 c -0.56769,7.268385 -3.69096,13.847087 -9.49483,19.999512 -1.3314,1.411354 -2.42073,2.628991 -2.42073,2.705861 0,0.236757 1.8233,-0.487924 3.95228,-1.57086 z m 63.49418,-8.025193 c 0,-0.18774 0.68445,-1.304425 1.521,-2.48152 0.83656,-1.177097 2.28054,-3.267432 3.20885,-4.645188 1.1255,-1.670401 1.77266,-2.420195 1.94243,-2.250438 0.33288,0.332893 -0.10135,1.683274 -1.28352,3.991904 -0.60638,1.184138 -1.56723,2.443086 -2.86518,3.754096 -1.90585,1.92502 -2.52358,2.324297 -2.52358,1.631146 z M 94.017636,75.279067 c -2.821154,-0.553015 -5.187197,-2.436739 -5.978821,-4.76003 -0.559341,-1.641574 -0.500532,-3.995597 0.134829,-5.397058 0.900328,-1.985911 2.269248,-3.011245 2.269248,-1.699687 0,1.860228 1.600928,4.391658 3.33773,5.277707 2.534243,1.292877 4.789307,1.13259 9.153368,-0.650612 3.47628,-1.420442 4.91303,-1.837937 7.04954,-2.048463 1.95684,-0.192822 4.63828,0.239007 4.63828,0.746966 0,0.174487 -0.65856,0.523953 -1.46346,0.776592 -2.08904,0.6557 -4.61607,1.97728 -7.56864,3.958237 -3.34971,2.247414 -5.41239,3.269962 -7.480317,3.708289 -1.878642,0.398205 -2.447168,0.41044 -4.091757,0.08805 z m 4.1118,-0.517577 c 1.770581,-0.376202 4.279754,-1.653905 7.528724,-3.833724 2.4576,-1.64887 5.83714,-3.462687 7.22124,-3.875685 0.57453,-0.171429 0.57785,-0.186543 0.0881,-0.399956 -0.72278,-0.31493 -2.83083,-0.305082 -4.59815,0.02148 -0.83061,0.15348 -3.05638,0.917229 -4.94616,1.697221 -3.06516,1.265122 -3.677052,1.430671 -5.67001,1.53402 -2.108492,0.109339 -2.325724,0.07072 -3.865225,-0.687169 -1.900949,-0.935837 -3.009837,-2.255795 -3.601126,-4.286587 -0.213978,-0.734912 -0.487031,-1.336203 -0.606787,-1.336203 -0.119754,0 -0.533702,0.645815 -0.919884,1.435142 -0.54507,1.114084 -0.69884,1.787004 -0.687352,3.00798 0.04566,4.853305 4.582667,7.886564 10.056666,6.723479 z M 120.09388,46.36474 c -1.14716,-0.618667 -3.18143,-2.400455 -3.18143,-2.78656 0,-0.459704 4.23176,-2.556116 6.15354,-3.048449 1.61963,-0.414934 4.96925,-0.304024 6.31769,0.209186 0.61821,0.23529 0.62225,0.252477 0.14224,0.60493 -0.27173,0.199517 -0.70691,0.362758 -0.96707,0.362758 -0.9408,0 -1.94178,0.779832 -3.11958,2.430367 -0.66041,0.925496 -1.56064,1.902166 -2.0005,2.170376 -0.96858,0.590607 -2.31339,0.613681 -3.34489,0.0574 z m 3.12633,-0.474141 c 0.31196,-0.218501 1.20074,-1.191309 1.97508,-2.161793 0.77433,-0.970486 1.77579,-1.956734 2.22548,-2.191663 l 0.81758,-0.427145 -0.8908,-0.238691 c -0.48994,-0.13128 -1.74021,-0.176232 -2.77837,-0.0999 -1.59328,0.117158 -2.3034,0.340973 -4.55471,1.435552 l -2.66715,1.296754 0.60974,0.664396 c 1.69484,1.846777 4.00588,2.603112 5.26315,1.722484 z"
         id="path30" /><path
         style="fill:#e29f0f;stroke-width:1.19378"
         d="m 184.87832,238.54359 c -1.69765,-1.42848 -2.36331,-4.13538 -1.44771,-5.88716 0.55019,-1.05266 0.88501,-1.04089 1.76506,0.0621 0.39023,0.48906 1.07742,1.07629 1.52709,1.30493 0.44967,0.22865 0.86146,0.45457 0.91508,0.50206 0.0536,0.0475 -0.26134,0.49502 -0.69991,0.99454 -0.66179,0.75373 -0.79743,1.12061 -0.79743,2.15691 0,0.68678 -0.10481,1.31348 -0.23296,1.39268 -0.12813,0.0791 -0.59128,-0.15752 -1.02922,-0.52603 z m -12.54983,-1.5588 c -1.45584,-1.60868 -1.89352,-4.86054 -0.92379,-6.8637 0.49386,-1.02018 1.86911,-2.36407 2.41925,-2.36407 0.12864,0 0.37423,0.59078 0.54575,1.31284 0.17151,0.72206 0.48416,1.55241 0.69476,1.84523 0.21059,0.29282 0.56322,0.7807 0.78363,1.08419 0.38232,0.52647 0.35802,0.58082 -0.52931,1.18377 -1.24425,0.8455 -1.66254,1.49654 -1.86332,2.90012 -0.1882,1.31575 -0.51535,1.57747 -1.12697,0.90162 z m -69.86323,-0.38338 c -0.78459,-0.83575 -1.57523,-2.72517 -1.58166,-3.77975 -0.007,-1.18375 0.43814,-2.49665 1.09209,-3.21941 0.69309,-0.76602 1.06956,-0.72145 1.43896,0.17035 0.16927,0.40866 0.69855,1.09863 1.17619,1.53326 1.03566,0.94243 1.08085,1.33743 0.22961,2.00702 -0.75697,0.59541 -1.3973,2.01122 -1.3973,3.08947 0,0.92022 -0.23503,0.96907 -0.95789,0.19906 z m -10.588302,-6.8719 c -1.641312,-2.61614 -0.897897,-6.8578 1.457011,-8.31321 0.472714,-0.29215 1.160917,-0.53119 1.529353,-0.53119 0.642756,0 0.669867,0.057 0.669867,1.40801 0,0.77441 0.171797,1.81918 0.381771,2.32171 0.545868,1.30645 0.486275,1.54113 -0.471603,1.85726 -1.084646,0.35797 -1.782113,1.1036 -2.454793,2.62431 -0.293355,0.66316 -0.582638,1.20576 -0.642852,1.20576 -0.06021,0 -0.271153,-0.25769 -0.468754,-0.57265 z m 74.019382,-2.84283 c -0.31031,-2.06925 0.36338,-4.50779 1.61444,-5.84377 0.72976,-0.77928 2.78446,-1.83506 3.05154,-1.56799 0.0877,0.0876 0.18516,0.92762 0.21662,1.86651 0.0314,0.93888 0.0933,2.03749 0.13756,2.44136 0.0714,0.65273 -0.0319,0.77356 -0.93011,1.08777 -1.09994,0.38476 -2.2287,1.34056 -2.88278,2.44106 -0.60059,1.0105 -1.01383,0.86505 -1.20727,-0.42494 z m -76.133336,-9.20485 c -0.274314,-0.71485 0.437048,-3.12095 1.287615,-4.3552 0.966792,-1.40291 2.602138,-2.3676 4.013569,-2.3676 1.146531,0 1.197183,0.2034 0.463629,1.86173 -0.378787,0.8563 -0.470851,1.43518 -0.349241,2.19573 l 0.16516,1.03284 h -1.190487 c -1.339072,0 -2.274837,0.40454 -3.182063,1.37565 -0.712329,0.76249 -0.991386,0.82181 -1.208182,0.25685 z m -12.340578,-49.2321 c -2.158066,-1.1401 -3.306955,-3.56631 -2.76282,-5.83452 0.169963,-0.70849 0.422385,-1.35821 0.560939,-1.44386 0.138553,-0.0856 0.671071,0.24123 1.183372,0.72634 1.28709,1.21879 2.091594,1.72156 2.754671,1.72156 0.838337,0 0.940105,0.40669 0.313769,1.25385 -0.489643,0.66228 -0.539471,0.9619 -0.402999,2.42334 0.17827,1.90905 0.0086,2.02788 -1.646932,1.15329 z m -17.608798,-6.09252 c -1.701895,-1.8838 -2.074715,-4.63975 -0.930945,-6.88173 0.805878,-1.57965 2.537688,-2.65999 2.551098,-1.59142 0.0092,0.73465 0.891007,2.45273 1.776403,3.46114 0.456994,0.52049 0.787023,0.98519 0.733399,1.03268 -0.05362,0.0475 -0.478728,0.2803 -0.944674,0.51736 -0.99404,0.50574 -1.811265,2.0844 -1.819644,3.51507 -0.0031,0.52494 -0.106795,0.95443 -0.230488,0.95443 -0.123695,0 -0.634511,-0.45339 -1.135149,-1.00753 z m -7.624639,-14.52904 c -0.185353,-0.70879 0.193438,-3.23927 0.646915,-4.32166 0.821538,-1.96088 2.634256,-3.3865 4.687578,-3.68653 1.547354,-0.22611 1.794023,0.10601 1.117211,1.50409 -0.435315,0.89924 -0.5477,1.51501 -0.480989,2.63539 l 0.08705,1.46198 -1.272576,0.13857 c -1.606792,0.17496 -2.714195,0.76182 -3.58026,1.89728 -0.782147,1.02545 -1.015012,1.09712 -1.20493,0.37088 z m 10.444089,-14.87729 c -1.036192,-0.9119 -2.502556,-1.23737 -4.065011,-0.90229 -0.707518,0.15173 -1.343963,0.21832 -1.414322,0.14796 -0.07036,-0.0703 0.188568,-0.58463 0.575393,-1.14282 1.362321,-1.96582 4.232708,-3.24397 6.371459,-2.8371 1.178866,0.22426 2.672407,0.94766 2.672407,1.29439 0,0.13102 -0.520724,0.774 -1.157163,1.42885 -0.636439,0.65485 -1.326572,1.51823 -1.533626,1.91862 -0.453878,0.87771 -0.549821,0.88383 -1.449137,0.0924 z M 45.641966,82.285168 c -0.34574,-0.909366 -0.310015,-3.535828 0.06512,-4.787931 0.423419,-1.413244 2.308602,-3.326597 3.676164,-3.731098 1.497032,-0.442795 1.922176,-0.232517 1.570359,0.776703 -0.151546,0.434725 -0.207267,1.384798 -0.123824,2.111275 0.08345,0.726476 0.182951,1.603271 0.22113,1.948433 0.06045,0.546552 -0.05592,0.648509 -0.901499,0.789788 -1.263808,0.211156 -2.159268,0.886834 -3.101322,2.340133 -0.41995,0.647853 -0.852279,1.184133 -0.96073,1.191734 -0.108455,0.0076 -0.308883,-0.279967 -0.445401,-0.639037 z m 0.769845,-18.32839 c 0,-0.611728 0.684781,-2.074194 1.42663,-3.046808 1.784386,-2.33945 5.98747,-3.363327 7.795767,-1.899057 l 0.550499,0.445768 -1.056819,1.20061 c -0.581251,0.660335 -1.302585,1.708294 -1.602965,2.328796 l -0.546146,1.128187 -0.832004,-0.514207 c -1.131859,-0.699529 -2.742586,-0.658202 -4.39876,0.11286 -1.072795,0.499458 -1.336202,0.547529 -1.336202,0.243854 z M 116.53237,23.317902 c -1.65652,-3.534576 -3.68937,-7.788533 -4.51743,-9.453237 -0.99897,-2.008286 -1.41028,-3.085631 -1.22236,-3.201767 0.43659,-0.269831 3.09381,0.169842 4.73301,0.783143 0.81002,0.303073 1.95302,0.993706 2.53997,1.53474 1.20107,1.107105 1.30157,1.133275 2.31737,0.603493 0.86185,-0.449483 2.69686,-0.500989 3.48178,-0.09772 0.65921,0.338678 1.95576,1.514056 1.95576,1.772984 0,0.09997 -0.39982,0.41766 -0.8885,0.705983 -0.48867,0.288324 -1.11816,0.900929 -1.39888,1.361344 -1.1157,1.829934 -0.318,3.670536 2.11846,4.888147 4.7589,2.378241 11.17274,-1.150069 9.60177,-5.282026 -0.38559,-1.014207 -1.83793,-1.949079 -3.29622,-2.121792 -1.44231,-0.170821 -1.55122,-0.377558 -0.88839,-1.68652 0.86606,-1.71028 1.95028,-2.436385 4.03171,-2.70001 1.09582,-0.138794 1.26973,-0.235632 1.19525,-0.665565 -0.29798,-1.7200955 -0.1152,-3.6131651 0.45415,-4.702635 0.87366,-1.6718894 4.06057,-6.362873 4.32273,-6.362873 0.2752,0 2.60606,3.6008142 3.78927,5.8538435 0.83581,1.5915336 0.86341,1.7330254 0.72688,3.7265588 l -0.14192,2.0722137 1.33866,0.167253 c 1.6585,0.207217 2.75109,0.85193 3.56715,2.104887 1.07909,1.656828 1.00276,1.911801 -0.68644,2.293047 -2.47916,0.559535 -3.48548,1.587395 -3.48353,3.558093 0.002,1.954048 1.671,3.615619 4.31148,4.292078 2.66617,0.683042 5.26354,0.01134 6.82259,-1.764323 1.44883,-1.650148 1.00759,-3.854779 -0.97691,-4.881 -0.92815,-0.479968 -0.93974,-0.957563 -0.0388,-1.59908 1.30807,-0.931427 2.73218,-1.149586 4.29515,-0.657972 l 1.38666,0.436156 0.85195,-0.930122 c 0.46858,-0.511566 1.49865,-1.226184 2.28904,-1.588039 1.66843,-0.763834 5.23904,-1.466681 5.60728,-1.103747 0.15407,0.151847 -0.0217,0.775602 -0.47971,1.70175 -0.87418,1.767942 -6.47016,13.911317 -7.26275,15.760296 -0.31074,0.724897 -0.69758,1.365044 -0.85962,1.422548 -0.16205,0.0575 -2.35621,-0.118172 -4.8759,-0.390394 -3.7727,-0.407591 -6.60271,-0.500965 -16.03444,-0.529044 -10.34622,-0.0308 -11.93489,0.02099 -16.43724,0.53586 -2.74123,0.313477 -5.04101,0.569957 -5.11061,0.569957 -0.0696,0 -1.48188,-2.891925 -3.1384,-6.426501 z"
         id="path29" /><path
         style="fill:#c30b0e;stroke-width:1.19378"
         d="m 187.32076,234.25611 c -1.91024,-0.68098 -3.24257,-2.67343 -2.71522,-4.06048 0.36909,-0.97081 -0.0458,-1.28143 -1.04003,-0.7785 -1.05743,0.53494 -2.00627,1.37956 -2.00627,1.78588 0,0.64985 -1.09127,1.6444 -2.10334,1.91692 -2.0804,0.56019 -3.9878,-0.75415 -4.91796,-3.38886 -0.48052,-1.36109 -0.32429,-1.98452 0.81273,-3.24305 0.50658,-0.56072 0.86671,-1.20211 0.81811,-1.45705 -0.13109,-0.68763 -1.21194,-0.70747 -2.42554,-0.0445 l -1.07869,0.58925 -0.69957,-0.5223 c -0.482,-0.35986 -0.81211,-0.95438 -1.06142,-1.91155 -0.971,-3.72793 0.96575,-6.38333 4.69335,-6.43487 1.3574,-0.0187 1.84087,0.12601 3.96551,1.18756 3.47709,1.73728 4.57567,1.59494 5.71853,-0.74099 0.58184,-1.18926 0.67877,-1.76045 0.7811,-4.60331 0.12293,-3.41541 -0.20908,-10.61711 -0.50303,-10.91106 -0.0949,-0.0948 -1.40582,-0.33147 -2.91329,-0.52584 -4.42218,-0.5702 -7.31681,-1.56703 -10.28997,-3.54358 -0.95349,-0.63388 -1.84129,-1.08595 -1.97291,-1.00462 -0.30599,0.18912 0.0443,1.43476 0.73048,2.59779 0.7142,1.21049 0.66338,1.34975 -0.43461,1.19081 -4.72883,-0.68454 -8.63493,-2.75525 -12.07372,-6.40055 -4.03207,-4.27421 -5.67218,-8.89854 -6.56107,-18.49902 -0.54781,-5.91658 -1.74245,-8.75363 -5.09068,-12.08946 -2.61961,-2.6099 -4.33672,-3.62199 -10.87741,-6.41128 -9.3587,-3.99104 -13.98748,-6.10043 -17.06365,-7.77609 -1.71479,-0.93409 -3.11781,-1.76842 -3.11781,-1.85406 0,-0.0856 0.96699,-0.81256 2.14887,-1.61538 2.47245,-1.67947 4.71247,-3.9798 5.62061,-5.77191 0.63905,-1.26111 0.83142,-2.53179 0.38328,-2.53179 -0.13543,0 -1.48117,0.92974 -2.99055,2.06608 -3.00249,2.26048 -6.23533,4.21342 -23.423647,14.15008 l -1.081698,0.62534 v -1.55684 c 0,-1.20104 -0.09431,-1.59303 -0.412773,-1.71524 -0.887338,-0.3405 -5.320328,1.69339 -7.419604,3.40418 -1.254367,1.02223 -1.795275,1.99507 -2.591095,4.66016 -0.93667,3.13679 -2.883642,4.58127 -6.174963,4.58127 -1.13334,0 -1.582361,-0.13654 -2.388363,-0.72629 -1.337997,-0.97898 -1.742742,-1.50583 -2.087428,-2.71716 -0.216203,-0.75981 -0.218298,-1.26515 -0.0081,-1.95009 0.375729,-1.22424 0.221988,-1.52955 -1.185611,-2.35446 -1.581138,-0.9266 -2.165025,-0.74758 -4.075716,1.24964 -1.713153,1.79074 -2.790846,2.26319 -4.356806,1.91001 -0.520996,-0.11747 -1.24246,-0.43232 -1.603252,-0.69958 -0.982262,-0.72765 -2.258811,-2.49827 -2.584233,-3.58444 -0.25227,-0.84199 -0.213651,-1.11716 0.311081,-2.21647 0.406209,-0.85101 0.844949,-1.3604 1.362651,-1.58209 2.346822,-1.00491 2.749243,-1.47993 2.150562,-2.53853 -0.339118,-0.59963 -0.535903,-0.68845 -1.399832,-0.63179 -3.167402,0.20773 -3.285956,0.19566 -4.15271,-0.42252 -1.585623,-1.1309 -2.267673,-3.79529 -1.463953,-5.71887 0.479291,-1.1471 1.870014,-2.40397 3.002677,-2.71369 0.711739,-0.19461 1.200259,-0.16414 2.03612,0.12698 1.335515,0.46516 2.043907,0.48975 2.448641,0.085 0.558909,-0.5589 0.31668,-1.17836 -0.827361,-2.11582 -0.9346,-0.76582 -1.162385,-1.12564 -1.302,-2.05666 -0.212646,-1.41803 0.111392,-2.21945 1.515924,-3.74928 l 1.092415,-1.18987 h 1.863428 c 1.637953,0 2.007953,0.0928 3.057842,0.76645 1.605347,1.03015 1.934482,1.43439 2.645892,3.24969 0.8435,2.15235 1.750655,3.2392 3.361461,4.02729 1.580132,0.77309 3.002294,0.75524 4.526696,-0.0568 2.674595,-1.42478 19.632955,-15.76758 21.010825,-17.77024 1.07706,-1.56547 3.82817,-6.55638 3.82817,-6.94487 0,-1.23816 -4.61015,1.80048 -8.669706,5.71438 -1.637044,1.57831 -3.063326,2.86964 -3.169513,2.86964 -0.279822,0 0.06482,-2.56555 0.680586,-5.06707 1.036441,-4.21017 2.952126,-7.83536 6.030653,-11.41223 1.67766,-1.94924 1.92502,-2.50068 0.99211,-2.21173 -1.76326,0.54613 -4.685136,2.35506 -6.495338,4.02123 -0.597786,0.55024 -1.152405,0.93491 -1.232484,0.85483 -0.260805,-0.26081 0.672445,-3.05794 1.803231,-5.40471 1.85818,-3.856324 4.768881,-7.373907 8.309101,-10.041543 2.82321,-2.127354 4.57049,-3.10495 9.56189,-5.349835 5.98268,-2.690718 8.77531,-4.838198 11.36468,-8.739245 0.80876,-1.218459 1.21218,-2.462383 0.79857,-2.462383 -0.0731,0 -1.06702,0.469659 -2.2087,1.043685 -1.14167,0.574026 -3.10352,1.435885 -4.35966,1.915242 -3.1623,1.20678 -5.36417,2.4077 -7.42393,4.049071 -1.40748,1.121589 -1.81785,1.335185 -2.06898,1.076899 -0.58756,-0.60431 -2.34202,-4.136416 -2.75043,-5.537228 -0.39929,-1.369536 -0.39522,-1.420786 0.20522,-2.578101 0.33694,-0.649432 0.69532,-1.795882 0.79638,-2.547667 0.28567,-2.124862 0.36531,-2.165743 1.87586,-0.963026 l 1.3344,1.062465 2.08519,-0.04444 c 2.4744,-0.05274 2.97321,-0.157186 4.57585,-0.958179 1.76107,-0.880182 3.03553,-2.136293 3.87804,-3.822225 0.64727,-1.295227 0.73944,-1.760073 0.74798,-3.772386 0.008,-2.091626 -0.0646,-2.446248 -0.82893,-3.99955 -2.1902,-4.45118 -6.85465,-5.472928 -12.34201,-2.703518 -1.5516,0.783075 -1.6739,0.962623 -2.22861,3.271609 -0.18496,0.769907 -0.4211,1.499813 -0.52474,1.622012 -0.25575,0.301513 -1.64364,-0.719061 -2.15493,-1.584606 -0.22797,-0.385926 -0.90497,-0.961881 -1.50445,-1.279902 -1.12081,-0.594589 -2.15854,-2.115544 -2.53747,-3.719078 -0.0991,-0.419141 -0.628,-1.432832 -1.17546,-2.252644 -0.876473,-1.312533 -1.763392,-3.512514 -1.763392,-4.374045 0,-0.34469 5.436302,-3.384467 10.498752,-5.87051 2.45009,-1.203184 3.49957,-1.848312 3.49957,-2.151234 0,-0.237971 -0.1718,-0.919601 -0.38178,-1.514733 -0.20997,-0.595132 -0.38177,-1.1787 -0.38177,-1.296818 0,-0.269116 2.82217,-2.164728 6.53556,-4.389847 1.98058,-1.186789 3.25665,-1.776775 4.1995,-1.941621 3.41395,-0.596886 9.81383,-0.894711 19.17045,-0.892118 8.37488,0.0023 10.9801,0.09732 16.67073,0.60788 5.94154,0.533075 7.08532,0.570035 9.60567,0.310409 3.24605,-0.33438 6.48318,-1.256069 8.30171,-2.363695 0.68017,-0.41427 1.29616,-0.693726 1.36888,-0.621011 0.23766,0.237659 -0.44723,2.466903 -1.24101,4.039385 -0.97984,1.941062 -2.88296,3.964595 -4.96583,5.280048 -0.88894,0.561413 -1.61625,1.112912 -1.61625,1.225548 0,0.112634 1.23122,0.814404 2.73604,1.559479 2.39977,1.188196 3.01779,1.639551 5.02871,3.672618 1.26096,1.274864 2.69995,3.023786 3.19773,3.886496 0.98472,1.706586 2.223,5.055702 1.96475,5.313948 -0.0883,0.08839 -0.77118,-0.325453 -1.5173,-0.919659 -2.36921,-1.886817 -7.86883,-4.044548 -10.32824,-4.052206 -0.99756,-0.0031 -0.62984,0.696987 0.89079,1.695978 1.78812,1.174708 5.0295,4.421389 6.23583,6.246019 3.11498,4.711558 4.92349,11.329988 4.40155,16.10788 -0.22331,2.044248 -0.048,2.143904 -2.23872,-1.272574 -1.57085,-2.449772 -3.73085,-4.612778 -6.26793,-6.276638 -2.99213,-1.962292 -3.30346,-1.662089 -1.17063,1.128802 5.17319,6.769337 7.02457,15.847281 4.9841,24.438744 -0.53167,2.238632 -1.45931,4.885675 -2.21371,6.316863 l -0.45426,0.861779 -0.31968,-2.805708 c -0.33623,-2.950917 -1.24869,-6.257999 -2.31569,-8.392947 -1.37876,-2.758706 -4.07101,-6.235615 -4.82837,-6.235615 -0.4533,0 -0.44347,0.04151 0.5391,2.276287 1.17371,2.669468 1.8704,5.002504 2.31804,7.762397 0.91948,5.668996 0.12221,10.755572 -2.90453,18.530992 -0.83091,2.13453 -1.70615,4.55829 -1.94498,5.38613 -0.28968,1.00409 -0.49973,1.38536 -0.63098,1.14531 -0.31086,-0.56854 -0.71733,-2.87575 -1.16112,-6.59088 -0.63931,-5.35191 -1.99546,-10.05791 -2.89843,-10.05791 -0.29934,0 -0.3555,0.44931 -0.30216,2.41789 0.0375,1.38227 -0.16952,4.27111 -0.48321,6.74465 -0.84109,6.63211 -0.45281,10.4102 1.51612,14.7526 2.09039,4.61025 5.35807,8.07302 12.29411,13.02811 6.5958,4.71204 10.15271,8.55848 12.45253,13.46616 1.14185,2.43664 2.27678,3.49111 4.79979,4.45951 4.93223,1.89312 9.80897,0.87727 13.49789,-2.81167 2.95972,-2.95971 4.55858,-7.04195 4.56826,-11.66373 0.0128,-6.11228 -2.62348,-11.99223 -9.66616,-21.55942 -4.13837,-5.62181 -7.04041,-10.5468 -8.47531,-14.38333 -2.52273,-6.745074 -2.11793,-14.294385 1.08913,-20.311429 0.92526,-1.73598 3.92726,-5.822204 5.37026,-7.309827 0.54828,-0.565231 0.99686,-1.164402 0.99686,-1.331491 0,-0.167088 -0.71581,-1.022474 -1.59071,-1.900855 -3.22574,-3.2386 -4.39463,-7.714958 -3.20752,-12.283432 0.33753,-1.298931 1.24724,-3.43595 1.46265,-3.43595 0.0907,0 0.29905,0.705656 0.46295,1.568123 0.42498,2.236189 1.67907,4.608173 3.28599,6.215096 2.21609,2.216097 2.56395,1.880774 1.34141,-1.293089 -0.48359,-1.255447 -0.58971,-2.025101 -0.59656,-4.326754 -0.0125,-4.223028 0.6741,-6.059631 4.32978,-11.580429 2.3168,-3.498817 3.06701,-5.341162 3.33082,-8.179715 l 0.17228,-1.853587 1.29468,1.427352 c 4.94558,5.452421 6.90909,13.57445 4.84435,20.038628 -0.75075,2.350392 -0.74939,2.311129 -0.0806,2.311129 0.83838,0 3.76255,-3.149503 4.84425,-5.217557 0.51253,-0.979882 1.10573,-2.451281 1.31821,-3.269775 0.2125,-0.818495 0.44487,-1.546697 0.5164,-1.618228 0.17336,-0.173354 0.89261,1.573851 1.17313,2.84973 1.05541,4.800463 0.15688,10.520584 -2.30819,14.694166 -2.00643,3.397033 -5.21197,6.139133 -9.90372,8.47187 -8.54877,4.25045 -12.70994,9.91781 -12.72198,17.326909 -0.008,5.345665 1.98502,9.836865 8.19747,18.466265 9.4359,13.10693 11.68507,17.98413 12.08728,26.2104 0.17502,3.57967 -0.19306,6.29809 -1.30517,9.63935 -1.18827,3.57004 -2.61325,5.82751 -5.48472,8.68895 -2.11728,2.10988 -2.79801,2.61549 -4.86247,3.6116 -3.4019,1.64143 -5.09346,2.03305 -8.89067,2.05835 -2.54878,0.017 -3.67583,-0.10016 -5.66757,-0.58927 -1.36738,-0.33576 -2.55488,-0.54171 -2.63891,-0.45769 -0.16532,0.16531 -0.96045,5.33456 -1.35836,8.83086 -0.33052,2.90419 -0.007,4.9863 1.13413,7.29483 1.02355,2.07101 2.34696,3.38068 4.36992,4.32457 1.5682,0.73169 4.13726,1.01968 5.58755,0.62635 2.27943,-0.6182 4.55224,-3.11026 5.349,-5.86505 0.75377,-2.60609 0.69306,-2.55618 1.47866,-1.21566 1.53979,2.62748 1.78359,3.60717 1.78642,7.17894 0.002,3.11037 -0.0475,3.44599 -0.83453,5.59932 -1.02826,2.81357 -1.22261,3.69047 -0.8179,3.69047 0.6364,0 2.5959,-1.36971 3.6724,-2.56705 0.61846,-0.68787 1.19288,-1.25068 1.27648,-1.25068 0.29195,0 0.14892,3.03553 -0.2273,4.82402 -0.34716,1.65038 -0.93184,3.21495 -3.93682,10.53481 -0.56579,1.3782 -0.96467,2.60942 -0.88641,2.73603 0.34273,0.55457 2.17545,-0.0662 4.00824,-1.35788 0.39301,-0.27696 0.78408,-0.43403 0.86904,-0.34907 0.21888,0.21888 -0.58915,3.00021 -1.28608,4.42686 -0.32262,0.66043 -1.22856,2.40336 -2.01319,3.87318 -1.45126,2.71856 -2.07538,4.37844 -4.11505,10.94414 -0.63056,2.02976 -1.29457,3.89204 -1.4756,4.13841 -0.25839,0.35165 -1.04895,0.52308 -3.67776,0.79751 -1.84174,0.19226 -3.47546,0.42794 -3.63047,0.52376 -0.15502,0.0957 -0.49814,0.59591 -0.76248,1.11135 -0.60568,1.18099 -1.4334,1.93089 -2.54063,2.30174 -1.06551,0.35688 -1.18626,0.35271 -2.40861,-0.0831 z M 133.84273,89.281523 c 8.25238,-3.431364 16.81053,-11.469947 20.33684,-19.102179 4.69903,-10.170446 3.65094,-20.710735 -2.70216,-27.174656 -2.03891,-2.074467 -5.29575,-4.030156 -5.29575,-3.180023 0,0.08479 0.80521,1.016385 1.78935,2.070194 2.36306,2.530351 4.36871,6.467646 5.09007,9.992343 0.4862,2.375748 0.68533,6.617638 0.31063,6.61713 -0.10505,-1.42e-4 -0.52717,-0.601435 -0.93818,-1.336203 -1.19987,-2.145029 -4.09086,-4.727102 -4.65785,-4.160124 -0.082,0.08207 0.14162,0.693821 0.49709,1.359443 2.15577,4.036743 2.71854,8.717852 1.57853,13.130113 -0.47122,1.823749 -2.40515,5.702912 -3.22978,6.478432 l -0.56712,0.533341 0.0845,-2.593929 c 0.0994,-3.055665 -0.34154,-5.293157 -1.49294,-7.574085 -1.03242,-2.045212 -1.41591,-1.884235 -1.30567,0.548078 0.33851,7.468884 -3.48362,15.819643 -10.31672,22.540369 -1.30201,1.280601 -2.36729,2.466966 -2.36729,2.636369 0,0.39616 0.85023,0.186804 3.18647,-0.784613 z m 68.05613,-11.115654 c 1.29795,-1.31101 2.2588,-2.569958 2.86518,-3.754096 1.18221,-2.30863 1.6164,-3.659011 1.28352,-3.991904 -0.16977,-0.169757 -0.81693,0.580037 -1.94243,2.250438 -0.92831,1.377756 -2.37229,3.468091 -3.20885,4.645188 -2.44987,3.447171 -1.97073,3.853583 1.00258,0.850374 z M 123.43877,46.307348 c 0.43986,-0.26821 1.34009,-1.24488 2.0005,-2.170376 1.1778,-1.650535 2.17878,-2.430367 3.11958,-2.430367 0.26016,0 0.69534,-0.163241 0.96707,-0.362758 0.48001,-0.352453 0.47597,-0.36964 -0.14224,-0.60493 -1.34844,-0.51321 -4.69806,-0.62412 -6.31769,-0.209186 -1.92178,0.492333 -6.15354,2.588745 -6.15354,3.048449 0,0.386105 2.03427,2.167893 3.18143,2.78656 1.0315,0.556289 2.37631,0.533215 3.34489,-0.0574 z M 105.90468,232.67188 c -0.24498,-0.064 -0.4454,-0.22165 -0.4454,-0.35029 0,-0.12865 -0.35512,-0.54974 -0.78914,-0.93577 -1.48362,-1.31957 -1.58472,-1.92071 -0.84172,-5.00425 0.1751,-0.72667 0.16357,-0.73626 -0.68207,-0.56713 -0.47311,0.0947 -1.28909,0.45587 -1.81332,0.80279 -1.995929,1.32084 -4.420129,0.56334 -5.311955,-1.65988 -1.052163,-2.62288 -0.395094,-4.73549 1.777552,-5.71522 0.573791,-0.25874 1.043258,-0.62191 1.043258,-0.80702 0,-0.39284 -1.283888,-1.11321 -1.984029,-1.11321 -0.696846,0 -1.333967,-0.81864 -1.616797,-2.07744 -0.207062,-0.92155 -0.152816,-1.33559 0.341099,-2.60372 0.475936,-1.22194 0.801922,-1.64508 1.718842,-2.2311 0.945045,-0.60401 1.40366,-0.72318 2.78293,-0.72318 2.14394,0 3.3443,0.58478 5.22991,2.54787 1.93148,2.01083 2.5949,2.04944 4.81787,0.28037 3.95191,-3.14497 10.60287,-10.88728 10.59955,-12.33884 -6e-4,-0.26142 -1.2429,-1.76707 -2.76067,-3.34587 -4.82494,-5.01895 -7.06896,-8.54295 -7.89987,-12.40588 -0.59585,-2.77016 -0.86071,-2.81096 -3.10301,-0.47798 l -1.72851,1.79842 -0.17715,-1.41789 c -0.41031,-3.28396 0.37921,-7.42411 2.10043,-11.01442 0.98146,-2.04724 1.48816,-2.73573 3.47694,-4.72431 1.28042,-1.2803 3.01524,-2.7776 3.85513,-3.32735 4.99217,-3.26755 11.5727,-5.45402 17.68879,-5.87733 2.07476,-0.1436 2.26068,-0.11055 4.53899,0.80581 7.05312,2.83701 10.85692,7.41243 11.99553,14.42888 0.47858,2.9491 0.54514,2.81791 -1.9114,3.76762 -4.61629,1.78469 -7.58944,4.06168 -9.09349,6.96427 -1.99559,3.85114 -0.33437,8.11812 3.66317,9.40918 1.48015,0.47803 3.17842,0.54229 4.18797,0.15846 0.97775,-0.37174 1.0664,-0.12096 0.4008,1.13372 -0.76831,1.44826 -2.26598,2.98177 -3.98777,4.08319 -0.76714,0.49074 -1.3948,1.01104 -1.3948,1.15622 0,0.67869 3.18015,1.30509 5.06682,0.99803 0.76558,-0.1246 1.44157,-0.17694 1.50219,-0.11628 0.29499,0.295 -1.41621,2.55084 -3.21075,4.23265 -2.10434,1.97216 -4.77271,3.6909 -7.87591,5.07299 -2.35808,1.05023 -2.44194,1.53722 -0.36507,2.11996 0.81408,0.22842 1.9594,0.41531 2.54515,0.41531 0.58574,0 1.06499,0.10159 1.06499,0.22563 0,0.35607 -3.1349,2.7909 -6.74464,5.23848 -4.00744,2.71723 -5.88921,4.22568 -9.39849,7.53396 l -2.68088,2.52734 h -4.33223 -4.33222 l -0.89602,1.2472 c -1.22173,1.70054 -3.07146,2.39542 -5.0206,1.88606 z M 85.689393,119.27003 c -2.384543,-2.5547 -5.693121,-6.19107 -7.352395,-8.08085 -1.659273,-1.88977 -4.707177,-5.28352 -6.773117,-7.54166 l -3.756257,-4.105707 0.78708,-0.157412 c 0.432893,-0.08655 1.517218,-0.157424 2.409611,-0.157424 1.828267,0 1.989355,-0.217531 1.058321,-1.429136 -1.014326,-1.319999 -4.778321,-5.66583 -5.055793,-5.837315 -0.148962,-0.09207 -0.978338,0.155225 -1.843058,0.549532 -3.159508,1.440716 -6.295998,0.740726 -7.998719,-1.785127 -1.020001,-1.513091 -1.076756,-2.050889 -0.19303,-1.829086 0.992169,0.249018 2.272655,-0.424651 2.760248,-1.452179 0.890485,-1.876555 0.838652,-2.207863 -0.646705,-4.133631 l -1.366633,-1.771844 -2.048144,-0.127257 c -1.718368,-0.106772 -2.192604,-0.237639 -2.945344,-0.812807 -1.321916,-1.010074 -1.859637,-2.283724 -1.859637,-4.404749 0,-1.576336 0.08544,-1.893298 0.741568,-2.751039 1.011418,-1.322203 1.860146,-1.702973 3.795898,-1.702973 2.065452,0 2.419778,-0.322884 1.976806,-1.80139 -0.217172,-0.724858 -0.505467,-1.098748 -0.992297,-1.286912 -2.347647,-0.907389 -3.104083,-1.879676 -3.104083,-3.989843 0,-1.123388 0.151432,-1.639527 0.758667,-2.585821 1.197191,-1.865659 1.802052,-2.302971 3.614797,-2.61348 1.529387,-0.261973 1.719488,-0.238154 3.08367,0.38639 1.34216,0.61446 1.504858,0.783291 2.118588,2.198433 0.691248,1.593884 1.253964,2.018038 2.086309,1.572581 0.379032,-0.202852 0.519331,-0.663604 0.653748,-2.146955 0.238723,-2.634386 -0.377358,-4.254814 -2.278139,-5.992023 -0.874759,-0.79948 -1.282076,-1.335542 -1.100196,-1.44795 0.158838,-0.09817 1.333883,-0.172853 2.611209,-0.165967 4.9433,0.02665 8.301575,2.284245 9.613468,6.462634 0.450249,1.434044 0.486606,2.021967 0.33021,5.339565 -0.249998,5.30315 0.429,8.086378 2.772599,11.364944 0.839983,1.175091 4.2805,4.336107 13.466908,12.372889 3.184614,2.78608 5.790221,5.157511 5.790221,5.269845 0,0.112335 -0.647531,1.153563 -1.438949,2.313835 -3.006123,4.407149 -5.178446,10.171579 -5.178446,13.741399 0,0.95345 0.243275,2.23592 0.657657,3.46695 0.649173,1.92854 0.652588,1.97835 0.264882,3.86259 -0.216026,1.04987 -0.468161,2.79648 -0.560301,3.88136 -0.09214,1.08487 -0.248114,1.97248 -0.346608,1.97248 -0.0985,0 -2.130071,-2.0902 -4.514614,-4.64489 z M 93.68401,74.771136 c -4.603815,-1.084646 -6.918598,-5.664067 -4.923888,-9.741106 0.386182,-0.789326 0.80013,-1.435141 0.919885,-1.435141 0.119755,0 0.392809,0.601291 0.606787,1.336203 0.591288,2.030792 1.700176,3.35075 3.601125,4.286587 1.539501,0.757891 1.756733,0.796511 3.865225,0.687169 1.992958,-0.103346 2.604856,-0.268898 5.670006,-1.53402 1.88978,-0.779992 4.11555,-1.543741 4.94616,-1.697221 1.76732,-0.326564 3.87537,-0.336412 4.59816,-0.02148 0.48978,0.213413 0.48646,0.228527 -0.0881,0.399956 -1.38411,0.412998 -4.76364,2.226815 -7.22125,3.875685 -5.46701,3.667962 -8.536653,4.653234 -11.974146,3.84337 z"
         id="path28" /><path
         style="fill:#263339;stroke-width:1.19378"
         d="m 67.083984,266.39794 c -0.370557,-0.37055 -0.446599,-15.63541 -0.08076,-16.21301 0.158344,-0.25 0.468837,-0.29895 1.077791,-0.16993 0.470454,0.0997 1.256231,0.15018 1.746172,0.11222 0.489941,-0.038 1.930782,-0.076 3.201867,-0.0845 2.14647,-0.0144 2.377,0.0347 3.236852,0.69103 1.277643,0.97515 1.525497,1.9949 1.41069,5.80401 -0.104193,3.45714 -0.380322,4.23889 -1.746826,4.94553 -0.775055,0.4008 -5.089253,0.59179 -6.070729,0.26875 -0.864134,-0.28442 -1.041494,0.155 -1.046016,2.59157 -0.0031,1.64111 -0.08274,2.09974 -0.364854,2.09974 -0.198526,0 -0.516712,0.0598 -0.707079,0.13282 -0.190368,0.0731 -0.486064,-0.007 -0.657104,-0.17816 z m 8.016137,-6.94314 c 0.528874,-0.61486 0.580906,-0.9266 0.580906,-3.4804 0,-2.78307 -0.0061,-2.81109 -0.770596,-3.57565 -0.750724,-0.75072 -0.823558,-0.76818 -2.824286,-0.67732 -1.876688,0.0852 -2.106408,0.15454 -2.665356,0.80437 -0.568888,0.66136 -0.611666,0.91498 -0.611666,3.62631 0,2.60783 0.05415,2.96193 0.513581,3.35813 0.72257,0.62315 1.649857,0.80783 3.550412,0.70712 1.407815,-0.0746 1.730191,-0.18498 2.227005,-0.76256 z m 128.203299,6.90912 c -0.0828,-0.21596 -0.11293,-0.65867 -0.067,-0.98381 0.0815,-0.57571 0.16921,-0.5945 3.35016,-0.71843 3.69666,-0.14402 3.98728,-0.29731 3.98728,-2.10307 v -0.98774 l -1.46346,0.2092 c -2.61956,0.37447 -4.44292,0.24828 -5.4555,-0.37752 -1.45648,-0.90015 -1.73469,-1.79246 -1.73359,-5.56009 0.001,-3.57531 0.26308,-4.4188 1.65639,-5.33173 0.88037,-0.57684 4.07936,-0.78113 5.59346,-0.3572 0.89179,0.24969 1.22608,0.25301 1.51285,0.015 0.20245,-0.16803 0.68999,-0.26859 1.0834,-0.22348 l 0.71531,0.082 0.0654,6.87191 c 0.0584,6.13552 0.0175,6.96543 -0.38177,7.74462 -0.85606,1.67057 -1.46177,1.9011 -5.28895,2.01293 -2.91215,0.0851 -3.44592,0.0414 -3.57408,-0.29261 z m 6.63417,-6.64183 c 0.62474,-0.40935 0.63634,-0.47729 0.63634,-3.72352 v -3.30658 l -0.82717,-0.50433 c -0.94056,-0.57347 -3.55806,-0.70061 -4.60485,-0.22366 -0.94293,0.42963 -1.18536,1.2782 -1.18536,4.14909 0,2.24935 0.0738,2.71987 0.51411,3.27967 0.28274,0.35947 0.76951,0.70958 1.08168,0.77805 1.0985,0.24089 3.74625,-0.0301 4.38525,-0.44872 z m -125.758428,2.03118 c -0.07667,-0.19979 -0.10171,-0.62929 -0.05564,-0.95443 0.07767,-0.54823 0.217775,-0.5966 1.928989,-0.66595 1.014878,-0.0411 1.856346,-0.0984 1.86993,-0.12725 0.151758,-0.32248 0.183053,-10.01621 0.03509,-10.86937 L 87.7589,247.99096 86.237604,247.8637 c -1.492373,-0.12485 -1.521296,-0.14177 -1.521296,-0.8908 v -0.76356 l 2.608778,-0.0725 2.608778,-0.0726 0.0039,6.68991 c 0.0021,3.70248 0.110126,6.85792 0.241777,7.06612 0.165325,0.26143 0.82399,0.40577 2.15948,0.47321 1.909019,0.0963 1.921601,0.10171 1.921601,0.80553 0,0.41127 -0.168896,0.77331 -0.402591,0.86298 -0.221422,0.085 -2.458386,0.15449 -4.971028,0.15449 -3.722589,0 -4.59425,-0.0672 -4.707837,-0.36326 z m 18.617448,-10e-4 c -1.55174,-0.57859 -1.90633,-1.21995 -1.91294,-3.46008 -0.01,-3.2038 0.83462,-3.81073 5.29981,-3.81073 3.04501,0 3.50068,-0.19397 3.20676,-1.36504 -0.28781,-1.14671 -0.74369,-1.29935 -4.28467,-1.43462 -2.94643,-0.11257 -3.34142,-0.18013 -3.41869,-0.58489 -0.19388,-1.01556 0.36197,-1.19748 3.61267,-1.18234 3.61416,0.0168 4.63186,0.29657 5.43743,1.49465 0.56864,0.84571 0.58467,1.02299 0.51784,5.72658 l -0.069,4.85385 -0.59364,0.084 c -0.32651,0.0462 -0.81373,-0.11508 -1.08273,-0.35852 -0.4191,-0.37929 -0.58907,-0.39667 -1.18795,-0.12151 -1.0987,0.50479 -4.34637,0.598 -5.52493,0.15856 z m 4.96893,-1.66927 c 0.35857,-0.001 0.90823,-0.241 1.2215,-0.53284 0.47304,-0.44071 0.55666,-0.75344 0.49339,-1.84524 l -0.0762,-1.31459 -2.92692,-0.0737 c -2.73409,-0.0688 -2.95627,-0.0376 -3.37233,0.4736 -0.45354,0.55727 -0.57833,1.62992 -0.28005,2.40722 0.27292,0.71123 1.60765,1.16162 3.01609,1.01775 0.69991,-0.0715 1.56594,-0.13101 1.92449,-0.13222 z m 15.44374,1.67518 c -2.12926,-0.77103 -2.32565,-1.24667 -2.47911,-6.00414 l -0.12725,-3.94498 -1.60591,-0.0762 -1.60591,-0.0762 0.0788,-0.81463 c 0.0775,-0.80079 0.10481,-0.8168 1.60591,-0.9419 l 1.52709,-0.12725 0.12726,-1.65434 0.12726,-1.65436 h 0.8908 0.8908 l 0.12725,1.65436 0.12726,1.65434 2.54515,0.12725 2.54515,0.12726 0.0797,0.82719 0.0797,0.82717 h -2.28594 c -1.25727,0 -2.46711,0.0695 -2.68853,0.15448 -0.34038,0.13061 -0.40259,0.70091 -0.40259,3.69047 0,4.4214 0.0821,4.55206 2.8633,4.55793 2.1821,0.005 2.551,0.18148 2.43827,1.16904 -0.0837,0.73271 -0.0924,0.73617 -1.99287,0.79343 -1.11891,0.0337 -2.30484,-0.0858 -2.86571,-0.28898 z m 28.38082,0.19593 c -0.17497,-0.0738 -0.31814,-0.46031 -0.31814,-0.85897 0,-0.72115 0.0107,-0.72575 2.02184,-0.90122 l 2.02184,-0.17636 0.0779,-5.24957 c 0.0429,-2.88727 0.0164,-5.59316 -0.0588,-6.01311 -0.13276,-0.74127 -0.18289,-0.76575 -1.71798,-0.83932 l -1.58123,-0.0758 v -0.88756 -0.88756 l 2.60879,0.0726 2.60878,0.0725 0.0678,6.80154 c 0.0664,6.66315 0.0789,6.80749 0.6144,7.09408 0.31228,0.16713 1.1016,0.23884 1.8411,0.16728 0.71194,-0.0689 1.43761,-0.0734 1.61259,-0.01 0.49921,0.18075 0.39596,1.54525 -0.12726,1.68177 -0.6277,0.16378 -9.28557,0.17255 -9.67157,0.01 z m 18.70853,-0.12801 c -0.52401,-0.14739 -1.23982,-0.60917 -1.59071,-1.02617 -0.55169,-0.65565 -0.63797,-1.00605 -0.63797,-2.5909 0,-3.09666 0.6108,-3.5437 5.0903,-3.72562 l 3.18143,-0.12921 0.0782,-0.94037 c 0.11782,-1.4177 -0.6822,-1.73203 -4.4084,-1.73203 h -2.95568 l 0.0797,-0.82717 0.0798,-0.82718 h 3.57523 c 2.98741,0 3.68775,0.0738 4.25958,0.44895 1.51912,0.99656 1.60091,1.41042 1.50993,7.6399 -0.0616,4.21623 -0.1773,4.46167 -1.71354,3.63436 -0.62353,-0.33579 -0.95084,-0.3808 -1.32258,-0.18185 -0.73958,0.39581 -4.13792,0.56315 -5.22525,0.25729 z m 4.69935,-1.75662 c 1.1261,-0.31275 1.72548,-1.07275 1.72548,-2.18788 0,-1.59623 -0.0425,-1.61853 -3.08142,-1.61853 -3.16487,0 -3.79049,0.30572 -3.79049,1.85224 0,1.45027 0.55616,1.92902 2.3603,2.03172 0.87158,0.0497 1.64195,0.11161 1.71194,0.13782 0.07,0.0261 0.55338,-0.0707 1.07419,-0.21537 z m 10.23871,1.72353 c -0.0684,-0.17815 -0.0934,-2.89677 -0.0556,-6.04139 0.0645,-5.36555 0.0981,-5.72316 0.54751,-5.80956 0.26337,-0.0506 0.74464,0.0501 1.0695,0.22404 0.47179,0.25249 0.82383,0.25082 1.7493,-0.008 1.69203,-0.47374 4.70415,-0.22995 5.67176,0.45904 1.23748,0.88116 1.35716,1.50429 1.28079,6.6678 -0.0695,4.69539 -0.0708,4.70519 -0.65627,4.78818 -1.25882,0.17845 -1.35782,-0.19912 -1.27318,-4.85558 l 0.0782,-4.30407 -0.71411,-0.61568 c -0.61466,-0.52995 -0.97317,-0.61569 -2.57446,-0.61569 -1.49667,0 -1.99143,0.10315 -2.53095,0.5275 l -0.67062,0.52751 v 4.38464 c 0,3.07092 -0.0916,4.47614 -0.30541,4.69004 -0.40344,0.40344 -1.45919,0.39137 -1.61645,-0.0185 z m -49.391,-5.89321 c -0.0766,-0.19979 -0.10171,-0.62929 -0.0556,-0.95442 0.0836,-0.58952 0.0948,-0.59118 4.02874,-0.59118 h 3.94498 l 0.084,0.73593 c 0.0477,0.41801 -0.0622,0.82864 -0.25451,0.95054 -0.1862,0.11806 -1.97421,0.21636 -3.97336,0.2185 -2.91647,0.004 -3.66238,-0.0679 -3.77423,-0.35937 z M 71.214225,209.08982 c -0.08359,-0.33302 -0.114902,-0.99358 -0.06959,-1.46789 l 0.08238,-0.8624 h 6.362873 6.362875 v 1.39984 1.39983 l -6.293283,0.068 -6.293283,0.068 z M 54.725964,208.2442 c -0.229419,-0.22941 -0.209061,-2.68793 0.02511,-3.03193 0.102844,-0.15107 2.506256,-1.52108 5.340916,-3.04445 2.83466,-1.52337 5.153927,-2.85861 5.153927,-2.96719 0,-0.29848 -1.496278,-1.17455 -5.9811,-3.50191 -2.239732,-1.16229 -4.215404,-2.29197 -4.390383,-2.5104 -0.378759,-0.4728 -0.428102,-3.00152 -0.06297,-3.22718 0.140345,-0.0868 3.519031,1.57631 7.508191,3.69565 l 7.253018,3.85336 v 1.50369 c 0,1.46234 -0.02624,1.52003 -0.95443,2.09758 -1.61272,1.00349 -13.253423,7.30246 -13.495199,7.30246 -0.125069,0 -0.303752,-0.0764 -0.397075,-0.16968 z M 24.304243,159.20048 C 6.1451256,141.04033 3.6305054,138.43362 3.8644996,138.01211 4.0112512,137.74777 13.335003,128.33504 24.583948,117.09494 39.150276,102.54008 45.15091,96.702284 45.433842,96.810859 c 0.430502,0.165195 6.577297,6.590071 6.577297,6.874841 0,0.0953 -7.587726,7.84409 -16.861615,17.21959 -9.273887,9.37551 -16.893149,17.23815 -16.931691,17.47257 -0.04502,0.2738 5.983973,6.47768 16.861614,17.35071 9.312431,9.3085 16.931692,17.0983 16.931692,17.31069 0,0.41948 -6.336626,6.86896 -6.74877,6.86896 -0.138359,0 -9.569515,-9.31849 -20.958126,-20.70774 z M 222.21433,176.6596 c -1.78277,-1.78673 -3.2414,-3.38981 -3.2414,-3.56241 0,-0.17259 7.69056,-8.04629 17.09014,-17.49709 l 17.09015,-17.18327 -2.77179,-2.86057 c -1.52448,-1.57331 -9.18642,-9.30969 -17.02652,-17.19194 -7.8401,-7.88225 -14.2858,-14.46783 -14.32379,-14.63462 -0.038,-0.16677 1.48023,-1.84847 3.37381,-3.737116 l 3.44286,-3.433888 20.74149,20.740314 c 11.40782,11.40718 20.74149,20.87347 20.74149,21.03619 0,0.46157 -41.00555,41.57302 -41.46592,41.57302 -0.22503,0 -1.86776,-1.46189 -3.65052,-3.24862 z"
         id="path27" /></g></g></svg>
